<svg id="Layer_1" data-name="Layer 1" xmlns="http://www.w3.org/2000/svg" viewBox="0 0 34.76 34.6"><defs><style>.cls-1{fill:#df146e;}.cls-2{fill:#fff;}</style></defs><title>bKash</title><path class="cls-1" d="M159.88,297.48H128.54a1.72,1.72,0,0,1-1.71-1.71V264.58a1.71,1.71,0,0,1,1.71-1.7h31.34a1.71,1.71,0,0,1,1.71,1.7v31.19a1.72,1.72,0,0,1-1.71,1.71" transform="translate(-126.83 -262.88)"/><path class="cls-2" d="M151.75,281.82l-11-1.75,1.49,6.5Zm.44-.53-8.66-12-2.83,10.24Zm-12-1.94-9.08-11.6L143,269.17Zm-4.4-4.81-5-4.75H132Zm19.14.9-2.13,5.78-3.46-4.78Zm-11.34,11.05,8.37-3.36.35-1.06Zm-7,6.11L140.17,280l1.82,8.19Zm18.83-17.12-.88,2.39,3.17-.05Z" transform="translate(-126.83 -262.88)"/></svg>