<svg id="Layer_1" data-name="Layer 1" xmlns="http://www.w3.org/2000/svg" viewBox="0 0 33.1 33.1"><defs><style>.cls-1{fill:#0080ff;}.cls-2{fill:#fff;}</style></defs><title>Facebook</title><path class="cls-1" d="M152.32,296.89h-5.61l-2.56-.85-2.54.85H136a8.38,8.38,0,0,1-8.38-8.38V272.16a8.38,8.38,0,0,1,8.38-8.38h16.34a8.38,8.38,0,0,1,8.38,8.38v16.35a8.38,8.38,0,0,1-8.38,8.38" transform="translate(-127.6 -263.78)"/><path class="cls-2" d="M141.6,276.73v3.61h-4.16v4.72h4.16v11.83h5.11V285.06h3.81l.72-4.72h-4.53v-3.07a2.36,2.36,0,0,1,2.66-2.55h2.06v-4a25.07,25.07,0,0,0-3.66-.32c-3.73,0-6.17,2.27-6.17,6.36" transform="translate(-127.6 -263.78)"/></svg>