<svg id="Layer_1" data-name="Layer 1" xmlns="http://www.w3.org/2000/svg" viewBox="0 0 57.79 35.56"><defs><style>.cls-1{fill:#fff;}.cls-2{fill:#cb0000;}.cls-3{fill:#fe9800;}.cls-4{fill:#fbb74b;}.cls-5{fill:#fdfdfd;}.cls-6{fill:#020266;}.cls-7{fill:#020166;}.cls-8{fill:#030266;}.cls-9{fill:#040266;}.cls-10{fill:#fefdfd;}.cls-11{fill:#cb0202;}</style></defs><title>Mastercard</title><rect class="cls-1" width="57.79" height="35.56"/><path class="cls-2" d="M151.11,324.28c-.38.32-.75.64-1.14.93a16.23,16.23,0,0,1-4.52,2.4,16.05,16.05,0,0,1-3,.71,16.31,16.31,0,0,1-10.78-2.21,16.17,16.17,0,0,1-6.85-8.3,15.15,15.15,0,0,1-.89-3.76,16.32,16.32,0,0,1,11.93-17.61,15.17,15.17,0,0,1,3.21-.54,16.26,16.26,0,0,1,8.12,1.57A15.73,15.73,0,0,1,151,300a.69.69,0,0,1,.13.11c.05.05,0,.08,0,.11a15.1,15.1,0,0,0-1.28,1.25l-.26.31a.21.21,0,0,0,.13,0h3a.2.2,0,0,1,.17.08l.46.6a11.37,11.37,0,0,1,.68,1s0,.05,0,.07-.05,0-.08,0h-5.54a.17.17,0,0,0-.18.1c-.25.39-.47.8-.68,1.21-.07.13-.12.26-.19.4h7.52a.14.14,0,0,1,.16.11c.23.5.44,1,.63,1.54,0,.09,0,.11-.08.1h-8.8c-.08,0-.13,0-.16.1-.15.48-.29,1-.4,1.46,0,.15,0,.15.12.15H156c.05,0,.07,0,.08.07.06.3.13.58.16.88a1.24,1.24,0,0,0-1,.27,3.12,3.12,0,0,0-.52.57.13.13,0,0,1-.1.09.38.38,0,0,0,0-.1c0-.22.07-.45.11-.68,0-.07,0-.08-.07-.08h-1.45c-.08,0-.09,0-.1.1s-.05.29-.08.43h-.26c-.08,0-.11,0-.12.09l-.3,1.92c-.14.83-.27,1.65-.4,2.48s-.24,1.44-.35,2.16c0,.05,0,.08.06.08h1.65c.05,0,.07,0,.07-.06s.05-.31.08-.46h.29c.05,0,.08,0,.09-.07s0-.26.06-.38c.15-.87.26-1.74.43-2.6a6.61,6.61,0,0,1,.24-.9s0,0,0-.05.05,0,.06,0a.85.85,0,0,1,.78-.15s.07,0,.06.08a8.86,8.86,0,0,0-.07.9,6.12,6.12,0,0,0,.13,1.41,3.93,3.93,0,0,0,.51,1.19.19.19,0,0,0,0,.07c-.11.45-.24.9-.37,1.34a.13.13,0,0,1-.15.1h-8.8c-.12,0-.12,0-.08.12.17.5.37,1,.58,1.47a.18.18,0,0,0,.19.12h7.4c.14,0,.14,0,.08.12-.25.52-.52,1-.82,1.52a.21.21,0,0,1-.2.11h-5.51s-.08,0-.1,0,0,.07,0,.1a17.13,17.13,0,0,0,1.06,1.47.26.26,0,0,0,.22.1h3.07a.3.3,0,0,1,.13,0,18.89,18.89,0,0,1-1.68,1.78m-17.5-11s0,0,0,0h0s-.06,0-.08,0a2.18,2.18,0,0,0-.44.57,2.92,2.92,0,0,0-.22,1.84,1.53,1.53,0,0,0,.76,1.11,2.21,2.21,0,0,0,2.29-.25,4.11,4.11,0,0,0,.3-.29v.54c0,.06,0,.08.07.08h1.39c.06,0,.07,0,.08-.07l.06-.45h.34c0,.11,0,.21,0,.32s0,.1.07.11l.39.09a10.21,10.21,0,0,0,1.66.1,3.47,3.47,0,0,0,.85-.1,2,2,0,0,0,1.21-.76s.07-.06,0-.1,0,0,0,0h0s0,0,0,0a2,2,0,0,0,.53-.65,2.9,2.9,0,0,0,0,.51,1.21,1.21,0,0,0,.79,1.1,1.57,1.57,0,0,0,.71.09,5.35,5.35,0,0,0,1-.16c.16,0,.24-.1.24-.27a1.2,1.2,0,0,1,0-.2l.33-.1a.09.09,0,0,0,.07-.08l.06-.42c0-.27.09-.54.13-.8l0,.08a2.48,2.48,0,0,0,2.17,1.9,5.57,5.57,0,0,0,1.47,0,4.41,4.41,0,0,0,1.08-.22.13.13,0,0,0,.11-.12c0-.11,0-.22.06-.33l.21-.08a.09.09,0,0,0,.07-.08c.09-.51.18-1,.28-1.53,0-.07,0-.08-.07-.05a5.37,5.37,0,0,1-1.53.38,2.4,2.4,0,0,1-1.13-.14,1,1,0,0,1-.62-.71h3c.08,0,.12,0,.13-.11s0-.28.08-.42h.21c.06,0,.1,0,.11-.08,0-.22.08-.44.11-.66a3.93,3.93,0,0,0,0-1.49,2.28,2.28,0,0,0-.79-1.38,2.53,2.53,0,0,0-2.27-.42,2.76,2.76,0,0,0-1.54,1.12.35.35,0,0,1-.11.13s0,0,0,0h0s0,0,0,0h0c-.06,0-.07.05-.1.08a4,4,0,0,0-.77,1.34,5.1,5.1,0,0,0-.23,2.51,1.52,1.52,0,0,1-.6,0,.44.44,0,0,1-.42-.55c.13-.81.26-1.62.4-2.44h.58c.06,0,.08,0,.09-.08s0-.33,0-.49h.18c.08,0,.11,0,.12-.1.06-.48.13-1,.2-1.44,0-.07,0-.09-.08-.09H146c-.08,0-.1,0-.08-.09.05-.28.09-.56.14-.84,0-.07,0-.09-.07-.09h-1.57c-.06,0-.09,0-.1.08l-.09.46H144c-.07,0-.1,0-.12.1-.07.4-.15.8-.22,1.21-.15.92-.31,1.84-.46,2.77,0,.21-.06.42-.11.63a.19.19,0,0,1,0-.07,1.67,1.67,0,0,0-.69-1.14,4.48,4.48,0,0,0-.68-.37,2.05,2.05,0,0,1-.46-.25.44.44,0,0,1-.2-.38,1.64,1.64,0,0,1,.38,0,9.66,9.66,0,0,1,1.2.07c.08,0,.11,0,.12-.1s0-.3.07-.45a1.94,1.94,0,0,1,.24,0c.12,0,.14,0,.15-.13.06-.43.12-.87.19-1.31,0-.06,0-.09-.08-.1a7.42,7.42,0,0,0-1.94-.1,2.26,2.26,0,0,0-1.9,1.06s0,0,0,0h0c-.05,0-.07,0-.1.06a1.8,1.8,0,0,0-.49.83c0-.12,0-.25,0-.37a1.72,1.72,0,0,0-.89-1.34,2.82,2.82,0,0,0-1.3-.3,6.18,6.18,0,0,0-2.18.34c-.06,0-.1.05-.1.12s0,.21-.06.32l-.3.09a.14.14,0,0,0-.1.11c-.05.33-.1.65-.16,1,0,.14-.05.28-.07.44a5.87,5.87,0,0,1,2.07-.3,1.89,1.89,0,0,1,.58.08.5.5,0,0,1,.35.39,5.8,5.8,0,0,0-1.18.06,2.73,2.73,0,0,0-1.85,1.08,0,0,0,0,0,0,0Zm-5.89-.6v.08l.06,2.19c0,.64,0,1.28,0,1.92,0,.06,0,.09.08.09H129a.08.08,0,0,0,.09-.07l.16-.45h.13c.11,0,.15,0,.19-.13.37-1.06.75-2.11,1.13-3.16.12-.33.22-.66.36-1a.76.76,0,0,1,0,.15c0,.34-.11.67-.16,1-.13.8-.25,1.59-.38,2.39l-.18,1.13c0,.08,0,.12.09.12H132c.07,0,.1,0,.11-.09s0-.29.07-.43h.29c.06,0,.08,0,.09-.07,0-.33.1-.65.16-1l.57-3.45c.2-1.23.41-2.46.61-3.68,0-.06,0-.09-.06-.09h-2.6c-.06,0-.09,0-.1.07l-.15.44h-.27c-.07,0-.1,0-.12.08l-.79,2.41-.37,1.08c0-.27,0-.55,0-.82l-.06-3.15c0-.06,0-.11-.09-.11-.78,0-1.57,0-2.37,0-.06,0-.08,0-.09.09s0,.29-.08.44h-.34s-.08,0-.08.07,0,.2,0,.3c-.16.92-.31,1.84-.47,2.76s-.29,1.76-.44,2.63-.27,1.62-.41,2.43c0,.07,0,.08.07.08h1.57c.06,0,.09,0,.09-.08s.05-.3.07-.44H127a.08.08,0,0,0,.11-.08c.15-.91.3-1.81.46-2.72,0-.32.11-.63.17-.95" transform="translate(-122.21 -294.4)"/><path class="cls-3" d="M156.27,309.63c0-.3-.1-.58-.15-.88a.08.08,0,0,0-.09-.07h-9.75c-.15,0-.15,0-.12-.15.11-.49.25-1,.4-1.46,0-.09.08-.1.16-.1h8.8c.08,0,.11,0,.08-.1-.19-.52-.4-1-.63-1.54a.14.14,0,0,0-.16-.11h-7.52c.07-.14.12-.27.19-.4.21-.41.43-.82.68-1.21a.17.17,0,0,1,.18-.1h5.54s.06,0,.08,0,0-.05,0-.07a11.37,11.37,0,0,0-.68-1l-.46-.6a.2.2,0,0,0-.17-.08h-3a.21.21,0,0,1-.13,0l.26-.31a15.1,15.1,0,0,1,1.28-1.25s.08-.06,0-.11a16.26,16.26,0,0,1,3.28-2.3,16.06,16.06,0,0,1,4.72-1.65,15.41,15.41,0,0,1,3.39-.26,16.33,16.33,0,0,1,15.36,12.25,15.58,15.58,0,0,1,.5,4.61,16.33,16.33,0,0,1-8.86,14,15.78,15.78,0,0,1-4.2,1.47,16.77,16.77,0,0,1-3.08.32,16.28,16.28,0,0,1-11.07-4.18l0,0a18.89,18.89,0,0,0,1.68-1.78.3.3,0,0,0-.13,0h-3.07a.27.27,0,0,1-.22-.1,17.13,17.13,0,0,1-1.06-1.47s-.06-.06,0-.1.07,0,.1,0h5.51a.21.21,0,0,0,.2-.11c.3-.5.57-1,.82-1.52.06-.12.06-.12-.08-.12h-7.4a.18.18,0,0,1-.19-.12c-.21-.49-.41-1-.58-1.47,0-.12,0-.12.08-.12h8.8a.13.13,0,0,0,.15-.1c.13-.44.26-.89.37-1.34a.25.25,0,0,1,0-.07l.21.27a3,3,0,0,0,2.21,1,6.33,6.33,0,0,0,1.62-.22.1.1,0,0,0,.08-.08c0-.12,0-.25.05-.37l.3-.07c.07,0,.1,0,.1-.11a2.38,2.38,0,0,1,.05-.26,1.7,1.7,0,0,0,.39.64,1.61,1.61,0,0,0,1,.44,2.23,2.23,0,0,0,1.68-.51s.09-.05.09-.11h0s0,0,0,0l.11-.05v.49c0,.05,0,.07.07.07h1.39s.07,0,.07-.06,0-.31.07-.46h.67c0,.16,0,.31-.08.47s0,.07.06.07h1.65c.05,0,.07,0,.08-.06s0-.31.06-.46h.31s.08,0,.09-.07c.07-.4.13-.81.2-1.21a23.14,23.14,0,0,1,.46-2.46c.07,0,.09-.08.13-.13a1,1,0,0,1,.59-.31c.07,0,.08,0,.06.08a5.66,5.66,0,0,0-.26,1.41,4.1,4.1,0,0,0,.23,1.87,2,2,0,0,0,3.43.81s0-.06.09-.06c0,.17,0,.34-.07.51s0,.07.07.07h1.55c.05,0,.07,0,.08-.06s0-.3.07-.46h.27c.08,0,.11,0,.12-.11.1-.64.2-1.29.31-1.93.15-1,.31-1.93.46-2.89l.42-2.63c0-.23.08-.46.11-.7h-1.68c-.06,0-.06,0-.07.07s-.05.3-.07.45h-.23c-.2,0-.2,0-.23.19-.05.42-.11.84-.17,1.25l-.07-.05a2,2,0,0,0-1.7-.44,2.58,2.58,0,0,0-1.3.79.63.63,0,0,1-.12.11s0,0,0,0h0c-.05,0-.09,0-.13.07a3,3,0,0,0-.68.79,5.83,5.83,0,0,1,.55-1.7s.07-.08,0-.09a1.24,1.24,0,0,0-.82.15,2.68,2.68,0,0,0-.73.77l-.06.08c0-.28.07-.56.12-.83,0-.08,0-.1-.08-.1h-1.43c-.08,0-.1,0-.11.1s0,.28-.07.43h-.31s-.07,0-.08.07,0,.26-.06.4l-.15.9c0-.14,0-.28-.05-.42a1.72,1.72,0,0,0-.92-1.36,2.63,2.63,0,0,0-.9-.25,5.83,5.83,0,0,0-2.38.26c-.18.05-.3.12-.29.32a.25.25,0,0,1,0,.07,5.76,5.76,0,0,0-.68.19.13.13,0,0,0-.1.12c0,.29-.09.57-.14.86l-.09.55a5.8,5.8,0,0,1,1.59-.3,3.67,3.67,0,0,1,1,.06.51.51,0,0,1,.42.4h-.21a3.37,3.37,0,0,0-2.15.77H162a2.15,2.15,0,0,0-1.4,1.67,3.87,3.87,0,0,1-.65.23,1.85,1.85,0,0,1-1.27-.08,1.64,1.64,0,0,1-.88-1.19,3.84,3.84,0,0,1,.06-1.72,2.9,2.9,0,0,1,.45-1.09l0,0h0s0,0,0,0h0l.1-.06a1.74,1.74,0,0,1,.62-.28,2.5,2.5,0,0,1,1.48.15c.19.08.37.18.56.28,0-.24.07-.47.11-.71l.34.18a.09.09,0,0,1,0-.05l.27-1.72c0-.05,0-.06,0-.08a5.75,5.75,0,0,0-1.78-.4,3.48,3.48,0,0,0-2.3.75s0,0,0,0h0s0,0,0,0h0s-.05,0-.08,0a3.36,3.36,0,0,0-1,.76c-.11.13-.21.21-.37.11v0m20.44,6.82a.52.52,0,0,0,.53-.52.53.53,0,0,0-.51-.54.54.54,0,0,0-.54.52.53.53,0,0,0,.52.54" transform="translate(-122.21 -294.4)"/><path class="cls-4" d="M176.2,321.23a.53.53,0,0,1,.52-.53.55.55,0,0,1,.54.54.53.53,0,0,1-.54.52.52.52,0,0,1-.52-.53m.52.44a.44.44,0,0,0,.45-.43.44.44,0,0,0-.44-.44.44.44,0,0,0,0,.87" transform="translate(-122.21 -294.4)"/><path class="cls-5" d="M134.3,310.32c0-.11,0-.21.06-.32s0-.09.1-.12a6.18,6.18,0,0,1,2.18-.34,2.82,2.82,0,0,1,1.3.3,1.72,1.72,0,0,1,.89,1.34c0,.12,0,.25,0,.37,0,.28-.07.56-.11.84s0,.3-.07.45c-.12.82-.23,1.65-.35,2.47-.05.32-.09.64-.14,1,0,.05,0,.12-.06.15h-1.4c-.08,0-.09,0-.08-.09l0-.34c0-.07,0-.15,0-.22h0l0,0a2.21,2.21,0,0,1-2,.72,1.44,1.44,0,0,1-1.29-1,2.67,2.67,0,0,1,.16-2.09s.06-.06.05-.11h0s0,0,0,0h0s0,0,0,0a2.73,2.73,0,0,1,1.85-1.08,5.8,5.8,0,0,1,1.18-.06l.35,0c.06,0,.07,0,.08-.07a1.36,1.36,0,0,0,0-.29.52.52,0,0,0-.49-.62,5,5,0,0,0-1.64,0,4.93,4.93,0,0,0-.86.22.12.12,0,0,1,0-.08c.06-.34.11-.68.17-1m.71,3.77s0,0,0,0a.86.86,0,0,0,0,.42.6.6,0,0,0,.54.55,1,1,0,0,0,.62-.11,1.07,1.07,0,0,0,.38-.35,2.2,2.2,0,0,0,.36-1.07c0-.11,0-.14-.13-.15a3.49,3.49,0,0,0-.79,0,1.34,1.34,0,0,0-.64.26.63.63,0,0,0-.28.4Z" transform="translate(-122.21 -294.4)"/><path class="cls-5" d="M148.36,314.16a1,1,0,0,0,.62.71,2.4,2.4,0,0,0,1.13.14,5.37,5.37,0,0,0,1.53-.38c.06,0,.08,0,.07.05-.1.51-.19,1-.28,1.53a.09.09,0,0,1-.07.08l-.21.08-.1,0a5.33,5.33,0,0,1-2.35.07,2.4,2.4,0,0,1-2-1.84,4.82,4.82,0,0,1,.23-3c.09-.23.23-.45.34-.68,0,0,0,0,0,0h0a0,0,0,0,0,0,0,.35.35,0,0,0,.11-.13A2.76,2.76,0,0,1,149,309.6a2.53,2.53,0,0,1,2.27.42,2.28,2.28,0,0,1,.79,1.38,3.93,3.93,0,0,1,0,1.49c0,.22-.08.44-.11.66,0,.07,0,.08-.11.08h-3.34c-.05,0-.11,0-.11.07a1.18,1.18,0,0,0,0,.46m.3-2.44a1.86,1.86,0,0,0-.16.47c0,.06,0,.07.06.07h1.8c.06,0,.07,0,.07-.08a1.83,1.83,0,0,0,0-.47.69.69,0,0,0-.6-.63,1,1,0,0,0-1.15.64" transform="translate(-122.21 -294.4)"/><path class="cls-5" d="M141.05,311.71a.44.44,0,0,0,.2.38,2.05,2.05,0,0,0,.46.25,4,4,0,0,1,.67.37,1.65,1.65,0,0,1,.7,1.14.19.19,0,0,0,0,.07,2.92,2.92,0,0,1-.2,1.46,2,2,0,0,1-.53.65l0,0h0s0,0,0,0l0,0a2.62,2.62,0,0,1-1.22.39,10.15,10.15,0,0,1-1.46,0,5,5,0,0,1-.94-.14c-.09,0-.11-.07-.1-.16,0-.26.08-.51.12-.77s.06-.35.08-.52,0-.11.12-.08A5.38,5.38,0,0,0,140,315a2.49,2.49,0,0,0,.94-.06.43.43,0,0,0,.16-.05.5.5,0,0,0,.11-.84,1.15,1.15,0,0,0-.19-.14l-.48-.26a2.88,2.88,0,0,1-.85-.57,1.94,1.94,0,0,1-.46-1.6,2.5,2.5,0,0,1,.23-.85h0s0,0,0,0a2.25,2.25,0,0,1,1.9-1.06,7.42,7.42,0,0,1,1.94.1c.08,0,.08,0,.07.1l-.18,1.31c0,.09,0,.16-.15.13a2,2,0,0,0-.25,0l-.8-.05a1.53,1.53,0,0,0-.64.09.44.44,0,0,0-.32.48" transform="translate(-122.21 -294.4)"/><path class="cls-5" d="M144.26,309.22l.09-.46c0-.06,0-.08.1-.08H146c.08,0,.09,0,.07.09-.05.28-.09.56-.14.84,0,.07,0,.09.08.09h.67c.08,0,.1,0,.09.09-.07.48-.14,1-.2,1.44,0,.08,0,.12-.12.1h-.75c-.05,0-.07,0-.08.07s0,.34-.07.5c-.14.82-.27,1.63-.4,2.44a.44.44,0,0,0,.42.55,1.74,1.74,0,0,0,.6,0s.06,0,.05.06a.61.61,0,0,0,0,.14c0,.26-.09.53-.13.8l-.06.41c0,.06,0,.08-.07.09l-.33.1a4.58,4.58,0,0,1-1,.1,1.21,1.21,0,0,1-1.22-1.06,3.09,3.09,0,0,1,0-1c.13-1,.3-2,.47-3l.39-2.27" transform="translate(-122.21 -294.4)"/><path class="cls-5" d="M156.27,309.63v0a7.05,7.05,0,0,0-.62,1.9c0,.09,0,.09-.12.07a.59.59,0,0,0-.53.11,1.39,1.39,0,0,0-.41.7h0s0,0,0,.05a6.61,6.61,0,0,0-.24.9c-.17.86-.28,1.73-.43,2.6,0,.12,0,.25-.06.38s0,.07-.09.07h-1.61c-.08,0-.1,0-.09-.1.12-.69.23-1.39.34-2.08.15-.91.3-1.83.44-2.74.07-.43.14-.85.2-1.28,0-.14.06-.29.08-.43s0-.1.1-.1h1.45c.06,0,.08,0,.07.08,0,.23-.08.46-.11.68,0,0,0,.06,0,.1a.13.13,0,0,0,.1-.09,3.12,3.12,0,0,1,.52-.57,1.24,1.24,0,0,1,1-.27" transform="translate(-122.21 -294.4)"/><path class="cls-6" d="M154.6,312.43a1.35,1.35,0,0,1,.41-.7.56.56,0,0,1,.53-.11c.07,0,.11,0,.12-.07a7.05,7.05,0,0,1,.62-1.9c.17.09.26,0,.37-.11a3.36,3.36,0,0,1,1-.76s0,0,.08,0,0,0-.05.06a4.43,4.43,0,0,0-1.1,1.44,5.88,5.88,0,0,0-.52,1.93,6.18,6.18,0,0,0,.09,2,2.89,2.89,0,0,0,3.4,2.34c.25,0,.49-.08.73-.12,0,.12,0,.24-.05.37a.1.1,0,0,1-.08.08,6.33,6.33,0,0,1-1.62.22,2.93,2.93,0,0,1-2.2-1l-.22-.27a3.93,3.93,0,0,1-.51-1.19,6.12,6.12,0,0,1-.13-1.41c0-.3,0-.61.07-.91,0-.05,0-.06-.06-.07a.85.85,0,0,0-.78.15s0,0-.06,0" transform="translate(-122.21 -294.4)"/><path class="cls-7" d="M146.23,315.05a.61.61,0,0,1,0-.14c0-.05,0-.06-.05-.06a5.09,5.09,0,0,1,.23-2.51,3.82,3.82,0,0,1,.77-1.34s0-.08.1-.08c-.11.23-.25.45-.34.68a4.82,4.82,0,0,0-.23,3,2.4,2.4,0,0,0,2,1.84,5.33,5.33,0,0,0,2.35-.07l.1,0c0,.11-.05.22-.06.33a.13.13,0,0,1-.1.12,4.59,4.59,0,0,1-1.09.22,5.57,5.57,0,0,1-1.47,0,2.48,2.48,0,0,1-2.17-1.9l0-.08" transform="translate(-122.21 -294.4)"/><path class="cls-7" d="M126.69,308.68c-.17,1-.34,2.07-.52,3.11l-.48,2.9c-.09.54-.18,1.08-.28,1.61,0,.1,0,.13.11.12h1.18c0,.14,0,.29-.07.44s0,.08-.09.08H125s-.07,0-.06-.08c.14-.81.27-1.62.41-2.42s.29-1.76.44-2.64.31-1.84.47-2.76c0-.1,0-.2,0-.3s0-.07.08-.07h.34" transform="translate(-122.21 -294.4)"/><path class="cls-8" d="M144.26,309.22l-.39,2.27c-.17,1-.34,2-.47,3a3.09,3.09,0,0,0,0,1,1.21,1.21,0,0,0,1.22,1.06,4.58,4.58,0,0,0,1-.1,1.2,1.2,0,0,0,0,.2c0,.17-.08.23-.24.27a5.2,5.2,0,0,1-1,.16,1.57,1.57,0,0,1-.71-.09,1.21,1.21,0,0,1-.79-1.1,2.18,2.18,0,0,1,0-.51,2.92,2.92,0,0,0,.2-1.46c.05-.21.07-.42.11-.63.15-.93.31-1.85.46-2.77.07-.41.15-.81.22-1.21,0-.08.05-.1.12-.1h.25" transform="translate(-122.21 -294.4)"/><path class="cls-7" d="M133.59,313.3c0,.05,0,.07-.05.11a2.67,2.67,0,0,0-.16,2.09,1.44,1.44,0,0,0,1.29,1,2.21,2.21,0,0,0,2-.72s0,0,0,0,0,.15,0,.22,0,.23,0,.34,0,.1.09.09h1.06c0,.15-.05.3-.06.45s0,.07-.08.07h-1.39c-.07,0-.07,0-.07-.08v-.54l-.3.29a2.21,2.21,0,0,1-2.29.25,1.53,1.53,0,0,1-.76-1.11,2.92,2.92,0,0,1,.22-1.84,2.18,2.18,0,0,1,.44-.57s0,0,.08,0" transform="translate(-122.21 -294.4)"/><path class="cls-9" d="M153,310.23c-.06.43-.13.85-.2,1.28-.14.91-.29,1.83-.44,2.74-.11.69-.22,1.39-.34,2.08,0,.09,0,.1.09.1h1.32c0,.15-.05.3-.08.46s0,.06-.07.06h-1.65c-.07,0-.07,0-.06-.08.11-.72.23-1.44.35-2.16s.26-1.65.4-2.48l.3-1.92c0-.07,0-.1.12-.09H153" transform="translate(-122.21 -294.4)"/><path class="cls-8" d="M127.72,312.67c0-.36.11-.73.17-1.09s.15-.86.22-1.3c0,0,0,.07,0,.1,0,1.36.07,2.71.1,4.07,0,.63,0,1.26.05,1.88,0,.08,0,.09.09.09h.84l-.16.45a.08.08,0,0,1-.09.07h-1.05c-.07,0-.08,0-.08-.09,0-.64,0-1.28,0-1.92l-.06-2.19v-.08" transform="translate(-122.21 -294.4)"/><path class="cls-8" d="M131,312.1c.16-.46.32-.93.49-1.39a2.23,2.23,0,0,1,.16-.4l-.1.65-.42,2.66-.42,2.66a.13.13,0,0,0,0,.06c0,.07,0,.08.07.08h1.33c0,.14,0,.29-.07.43s0,.09-.11.09h-1.58c-.1,0-.11,0-.09-.12l.18-1.13c.13-.8.25-1.59.38-2.39.05-.34.1-.67.16-1a.76.76,0,0,0,0-.15h0s0,0,0,0" transform="translate(-122.21 -294.4)"/><path class="cls-6" d="M139.46,310.66a2.5,2.5,0,0,0-.23.85,1.94,1.94,0,0,0,.46,1.6,3.12,3.12,0,0,0,.85.58l.48.25a1.15,1.15,0,0,1,.19.14.5.5,0,0,1-.11.84.76.76,0,0,1-.16.06.61.61,0,0,0-.37-.51l-.7-.38a2.19,2.19,0,0,1-.72-.56,1.81,1.81,0,0,1-.39-1.14c0-.28.07-.56.11-.84a1.8,1.8,0,0,1,.49-.83s0-.06.1-.06" transform="translate(-122.21 -294.4)"/><path class="cls-8" d="M138.67,315.41c0,.26-.07.51-.12.77,0,.09,0,.13.1.16a5,5,0,0,0,.94.14,10.15,10.15,0,0,0,1.46,0,2.7,2.7,0,0,0,1.23-.39l0,0s0,.07,0,.1a2,2,0,0,1-1.21.76,3.47,3.47,0,0,1-.85.1,10.21,10.21,0,0,1-1.66-.1l-.39-.09c-.07,0-.09-.05-.07-.11s0-.21,0-.32.05-.1.06-.15c.05-.32.09-.64.14-1l.33.1" transform="translate(-122.21 -294.4)"/><path class="cls-7" d="M134.3,310.32c-.06.33-.11.67-.17,1a.12.12,0,0,0,0,.08,4.93,4.93,0,0,1,.86-.22,5,5,0,0,1,1.64,0,.52.52,0,0,1,.49.62,1.36,1.36,0,0,1,0,.29s0,.08-.08.07l-.35,0a.5.5,0,0,0-.35-.39,1.87,1.87,0,0,0-.57-.08,5.9,5.9,0,0,0-2.08.3c0-.16.05-.3.07-.44,0-.33.11-.65.16-1a.13.13,0,0,1,.1-.11l.3-.09" transform="translate(-122.21 -294.4)"/><path class="cls-7" d="M148.36,314.16a1.41,1.41,0,0,1,0-.46c0-.08.07-.07.12-.07h3.13c0,.14-.06.28-.08.42s-.05.11-.13.11h-3" transform="translate(-122.21 -294.4)"/><path class="cls-9" d="M131,308.66c-.3.88-.6,1.77-.89,2.65l-.6,1.76a.17.17,0,0,1-.06.12v-1l.37-1.08.79-2.41c0-.06.05-.09.12-.08H131" transform="translate(-122.21 -294.4)"/><path class="cls-8" d="M141.05,311.71a.44.44,0,0,1,.32-.48,1.53,1.53,0,0,1,.64-.09l.8.05-.06.45c0,.08,0,.11-.13.1a9.44,9.44,0,0,0-1.2-.07,1.55,1.55,0,0,0-.37,0" transform="translate(-122.21 -294.4)"/><path class="cls-9" d="M145.57,311.9c0-.16.05-.33.07-.5s0-.07.08-.07h.57c0,.16,0,.32,0,.49s0,.08-.09.08h-.58" transform="translate(-122.21 -294.4)"/><path class="cls-10" d="M171.11,310.53a.63.63,0,0,0,.12-.11,2.58,2.58,0,0,1,1.3-.79,2,2,0,0,1,1.7.44l.07.05a2.94,2.94,0,0,1,.34.36c0-.27.09-.53.13-.78s.1-.68.16-1c0-.15,0-.3.07-.45s0-.07.07-.07h1.68c0,.24-.07.47-.11.7l-.42,2.63c-.15,1-.31,1.92-.46,2.89-.11.64-.21,1.29-.31,1.93,0,.08,0,.12-.12.11h-1.47c-.09,0-.13,0-.11-.12s0-.31.06-.5a2,2,0,0,1-.6.47,2,2,0,0,1-2.11-.09,2.36,2.36,0,0,1-.9-1.36,4.29,4.29,0,0,1-.11-1.82,4.85,4.85,0,0,1,1-2.39s0,0,0-.05h0s0,0,0,0m1.16,1.38s0,0,0,0a.56.56,0,0,0-.09.17,3.19,3.19,0,0,0-.26,1.43,2.05,2.05,0,0,0,.11.7.81.81,0,0,0,.64.57,1,1,0,0,0,.79-.21,1,1,0,0,0,.29-.3,2.7,2.7,0,0,0,.47-1.51,2.44,2.44,0,0,0-.11-1,.79.79,0,0,0-.55-.54,1.11,1.11,0,0,0-1.27.62Z" transform="translate(-122.21 -294.4)"/><path class="cls-5" d="M162.1,312.88a3.37,3.37,0,0,1,2.15-.77h.21l.72,0c.06,0,.07,0,.08-.07a2,2,0,0,0,0-.42.46.46,0,0,0-.3-.43,1.34,1.34,0,0,0-.49-.1,5.7,5.7,0,0,0-1.79.17l-.43.11a.2.2,0,0,0,0-.07l.18-1.12a.14.14,0,0,0,0-.06c0-.2.11-.27.29-.32a6,6,0,0,1,2.38-.27,2.54,2.54,0,0,1,.89.26,1.71,1.71,0,0,1,.93,1.36c0,.14,0,.28.05.42l-.12.79c-.1.73-.21,1.46-.31,2.19s-.17,1.16-.25,1.73c0,.06,0,.12-.09.11h-1.37c-.06,0-.09,0-.08-.07a1.84,1.84,0,0,0,0-.33.43.43,0,0,0,0-.25h0s0,0,0,0a2.31,2.31,0,0,1-.83.58l-.11.05s0,0,0,0h0a2.52,2.52,0,0,1-1,.09,1.51,1.51,0,0,1-1.3-1,2.67,2.67,0,0,1-.11-1.43,2.27,2.27,0,0,1,.65-1.25m1.73,2.2a1,1,0,0,0,.73-.34,2.11,2.11,0,0,0,.45-1.2c0-.1,0-.13-.12-.14a2.79,2.79,0,0,0-1.11.11.92.92,0,0,0-.57.45.82.82,0,0,0-.1.3.65.65,0,0,0,.72.82" transform="translate(-122.21 -294.4)"/><path class="cls-10" d="M160.24,316.42c-.24,0-.48.09-.73.12a3.09,3.09,0,0,1-2.51-.71,3.13,3.13,0,0,1-.89-1.63,6.18,6.18,0,0,1-.09-2,5.88,5.88,0,0,1,.52-1.93,4.43,4.43,0,0,1,1.1-1.44s.05,0,.05-.06h0s0,0,0,0h0s0,0,0,0a3.48,3.48,0,0,1,2.3-.75,5.75,5.75,0,0,1,1.78.4.07.07,0,0,1,0,.08c-.1.57-.18,1.15-.27,1.72a.09.09,0,0,0,0,.05l-.34-.18a3,3,0,0,0-.66-.23,2,2,0,0,0-2.17.77s-.06,0,0,.08h0s0,0,0,0h0s0,0,0,0a3.09,3.09,0,0,0-.46,1.09,4,4,0,0,0,0,1.72,1.64,1.64,0,0,0,.88,1.19,1.85,1.85,0,0,0,1.27.08,3.87,3.87,0,0,0,.65-.23,1.78,1.78,0,0,0,.29-.12c0,.15,0,.28-.06.41l-.18,1.13a2.38,2.38,0,0,0-.05.26c0,.07,0,.1-.1.11l-.3.07" transform="translate(-122.21 -294.4)"/><path class="cls-10" d="M167.63,310.23c0-.14.05-.29.07-.43s0-.1.11-.1h1.43c.08,0,.09,0,.08.1,0,.27-.09.55-.12.83l.06-.08a2.68,2.68,0,0,1,.73-.77,1.24,1.24,0,0,1,.82-.15c.09,0,0,.06,0,.09a5.83,5.83,0,0,0-.55,1.7,1,1,0,0,0,0,.17s0,.06-.08,0a.53.53,0,0,0-.25,0,.68.68,0,0,0-.54.39,2.94,2.94,0,0,0-.28.69,23.14,23.14,0,0,0-.46,2.46c-.07.4-.13.81-.2,1.21,0,.06,0,.08-.09.07h-1.59c-.1,0-.12,0-.1-.11.09-.51.17-1,.25-1.54.15-.92.3-1.84.44-2.75.1-.6.19-1.2.29-1.8" transform="translate(-122.21 -294.4)"/><path class="cls-8" d="M169.09,312.69a2.71,2.71,0,0,1,.28-.68.67.67,0,0,1,.54-.4.53.53,0,0,1,.25,0c.05,0,.07,0,.08,0a1,1,0,0,1,0-.17,3,3,0,0,1,.68-.79s.08-.07.13-.07,0,0,0,.05a4.85,4.85,0,0,0-1,2.39,4.29,4.29,0,0,0,.11,1.82,2.36,2.36,0,0,0,.9,1.36,2,2,0,0,0,2.11.09,2,2,0,0,0,.6-.47c0,.19,0,.35-.06.5s0,.12.11.12h1.2c0,.16-.05.31-.07.46s0,.06-.08.06h-1.55c-.07,0-.07,0-.07-.07s.05-.34.07-.51c-.05,0-.07,0-.09.06a2,2,0,0,1-3.43-.81,4.1,4.1,0,0,1-.23-1.87,5.66,5.66,0,0,1,.26-1.41c0-.07,0-.08-.06-.08a1,1,0,0,0-.59.31c0,.05-.06.12-.13.13" transform="translate(-122.21 -294.4)"/><path class="cls-6" d="M160.69,316l.18-1.13.06-.4-.29.11a2.15,2.15,0,0,1,1.4-1.67h.06a2.27,2.27,0,0,0-.65,1.25,2.71,2.71,0,0,0,.11,1.44,1.52,1.52,0,0,0,1.3,1,2.52,2.52,0,0,0,1-.09c0,.06-.06.08-.09.11a2.21,2.21,0,0,1-1.68.51,1.58,1.58,0,0,1-1-.44,1.84,1.84,0,0,1-.39-.64" transform="translate(-122.21 -294.4)"/><path class="cls-9" d="M167.63,310.23c-.1.6-.19,1.2-.29,1.8-.14.91-.29,1.83-.44,2.75-.08.51-.16,1-.25,1.54,0,.09,0,.11.1.11H168c0,.15-.05.3-.06.46s0,.06-.08.06h-1.65c-.06,0-.07,0-.06-.07s0-.31.08-.47c.08,0,.09-.05.09-.11.08-.57.17-1.15.25-1.72.1-.74.21-1.47.31-2.2l.12-.79.15-.9c0-.14,0-.27.06-.41a.07.07,0,0,1,.08-.06h.31" transform="translate(-122.21 -294.4)"/><path class="cls-6" d="M162.47,310.21l-.18,1.12a.2.2,0,0,1,0,.07l.43-.11a5.7,5.7,0,0,1,1.79-.17,1.34,1.34,0,0,1,.49.1.46.46,0,0,1,.3.43,2,2,0,0,1,0,.42s0,.07-.08.07l-.72,0a.51.51,0,0,0-.42-.4,3.67,3.67,0,0,0-1-.06,5.8,5.8,0,0,0-1.59.3l.09-.55c0-.29.1-.58.14-.86a.13.13,0,0,1,.1-.12l.68-.2" transform="translate(-122.21 -294.4)"/><path class="cls-9" d="M158.4,310.66s0-.06,0-.08a2,2,0,0,1,2.17-.77,3,3,0,0,1,.66.23c0,.24-.08.47-.11.71a3.58,3.58,0,0,0-.56-.27,2.43,2.43,0,0,0-1.48-.16,1.74,1.74,0,0,0-.62.28l-.1.06" transform="translate(-122.21 -294.4)"/><path class="cls-6" d="M164.84,315.76a.46.46,0,0,1,0,.26,1.82,1.82,0,0,1,0,.32c0,.06,0,.07.08.07h.7c0,.15-.05.31-.07.46s0,.06-.07.06h-1.39c-.06,0-.08,0-.07-.07v-.49a2.31,2.31,0,0,0,.83-.58s0,0,0,0Z" transform="translate(-122.21 -294.4)"/><path class="cls-9" d="M174.93,308.68c-.06.34-.11.68-.16,1s-.08.51-.13.78a2.94,2.94,0,0,0-.34-.36c.06-.41.12-.83.17-1.25,0-.2,0-.2.23-.19h.23" transform="translate(-122.21 -294.4)"/><path class="cls-5" d="M176.71,316.45a.53.53,0,0,1-.52-.54.54.54,0,0,1,.54-.52.53.53,0,0,1,.51.54.52.52,0,0,1-.53.52m.44-.53a.43.43,0,0,0-.44-.44.44.44,0,0,0-.43.45.43.43,0,0,0,.44.43.42.42,0,0,0,.43-.44" transform="translate(-122.21 -294.4)"/><path class="cls-11" d="M138.67,315.41l-.33-.1c.12-.82.23-1.65.35-2.47,0-.15.05-.3.07-.45a1.81,1.81,0,0,0,.39,1.14,2.3,2.3,0,0,0,.72.56l.7.38a.61.61,0,0,1,.37.5,2.49,2.49,0,0,1-.94.06,4.83,4.83,0,0,1-1.13-.23c-.09,0-.11,0-.12.09s-.05.34-.08.52" transform="translate(-122.21 -294.4)"/><path class="cls-11" d="M136.11,315a1,1,0,0,1-.62.11.6.6,0,0,1-.54-.55.86.86,0,0,1,0-.42l0,0h0a2.73,2.73,0,0,1,1.1-.17c.18,0,.18,0,.18.18a2.6,2.6,0,0,1-.18.87" transform="translate(-122.21 -294.4)"/><path class="cls-9" d="M136.11,315a2.6,2.6,0,0,0,.18-.87c0-.18,0-.17-.18-.18a2.73,2.73,0,0,0-1.1.17.63.63,0,0,1,.28-.4,1.34,1.34,0,0,1,.64-.26,3.49,3.49,0,0,1,.79,0c.1,0,.14,0,.13.15a2.2,2.2,0,0,1-.36,1.07,1.07,1.07,0,0,1-.38.35" transform="translate(-122.21 -294.4)"/><path class="cls-8" d="M148.66,311.72a1,1,0,0,1,1.15-.64.69.69,0,0,1,.6.63,1.83,1.83,0,0,1,0,.47c0,.05,0,.08-.07.08H150a.71.71,0,0,0-.65-.65,1.06,1.06,0,0,0-.65.12" transform="translate(-122.21 -294.4)"/><path class="cls-11" d="M148.66,311.72a1.06,1.06,0,0,1,.65-.12.71.71,0,0,1,.65.65h-1.4s-.07,0-.06-.07a1.86,1.86,0,0,1,.16-.47" transform="translate(-122.21 -294.4)"/><path class="cls-3" d="M173.44,314.61a1,1,0,0,1-.79.21.81.81,0,0,1-.64-.57,2.05,2.05,0,0,1-.11-.7,3.19,3.19,0,0,1,.26-1.43.56.56,0,0,1,.09-.17s0,0,0,0h0s.08,0,.11,0a.87.87,0,0,1,1.24.46,1.12,1.12,0,0,1,.08.26,3.16,3.16,0,0,1-.24,1.94s0,.05,0,.08" transform="translate(-122.21 -294.4)"/><path class="cls-9" d="M173.44,314.61s0-.05,0-.08a3.16,3.16,0,0,0,.24-1.94,1.12,1.12,0,0,0-.08-.26.87.87,0,0,0-1.24-.46s-.06.06-.11,0a1.11,1.11,0,0,1,1.27-.62.77.77,0,0,1,.55.54,2.44,2.44,0,0,1,.11,1,2.7,2.7,0,0,1-.47,1.51,1,1,0,0,1-.29.3" transform="translate(-122.21 -294.4)"/><path class="cls-8" d="M163.21,314a.92.92,0,0,1,.57-.45,2.79,2.79,0,0,1,1.11-.11c.09,0,.13,0,.12.14a2.11,2.11,0,0,1-.45,1.2,1,1,0,0,1-.73.34,2.44,2.44,0,0,0,.25-1c0-.1,0-.13-.13-.13a4.59,4.59,0,0,0-.74,0" transform="translate(-122.21 -294.4)"/><path class="cls-3" d="M163.21,314a4.59,4.59,0,0,1,.74,0c.1,0,.13,0,.13.13a2.44,2.44,0,0,1-.25,1,.65.65,0,0,1-.72-.82.82.82,0,0,1,.1-.3" transform="translate(-122.21 -294.4)"/><path class="cls-3" d="M177.16,315.92a.44.44,0,1,1-.45-.43.43.43,0,0,1,.45.43m-.2.28-.12-.18s-.06-.06,0-.09a.13.13,0,0,0,.07-.16.16.16,0,0,0-.14-.12h-.22c-.07,0-.08,0-.08.07s0,.27,0,.4,0,.09,0,.09,0,0,.05-.09,0-.12,0-.14.13,0,.16.1a.18.18,0,0,1,0,.07c0,.06.07.07.14.05" transform="translate(-122.21 -294.4)"/><path class="cls-4" d="M176.5,321.24s0-.05,0-.07,0-.18,0-.2a.38.38,0,0,1,.33,0,.14.14,0,0,1,0,.24c-.08,0-.06.07,0,.12l.06.09s.05.05,0,.07a.07.07,0,0,1-.1,0l-.08-.13a.13.13,0,0,0-.09-.07s-.09,0-.08.06v.11s0,.06-.05.06,0,0,0-.06Zm.21-.2c-.06,0-.13,0-.12.07s0,.11.07.1.16,0,.17-.09-.07-.08-.12-.08" transform="translate(-122.21 -294.4)"/><path class="cls-5" d="M177,316.2c-.07,0-.12,0-.14-.05a.18.18,0,0,0,0-.07c0-.07-.08-.13-.16-.1s0,.09,0,.14,0,.09-.05.09,0-.06,0-.09,0-.27,0-.4,0-.08.08-.08h.22a.16.16,0,0,1,.14.12.13.13,0,0,1-.07.16c-.07,0,0,.05,0,.09l.12.18m-.31-.48s-.07,0-.07.08,0,.1.08.09.16,0,.16-.08-.08-.08-.17-.09" transform="translate(-122.21 -294.4)"/><path class="cls-3" d="M176.65,315.72c.09,0,.18,0,.17.09s-.09.07-.16.08-.08,0-.08-.09,0-.08.07-.08" transform="translate(-122.21 -294.4)"/></svg>