<svg id="Layer_1" data-name="Layer 1" xmlns="http://www.w3.org/2000/svg" viewBox="0 0 33.11 33.1"><defs><style>.cls-1{fill:#fff;}.cls-2{fill:red;}</style></defs><title>Pinterest</title><path class="cls-1" d="M149.44,282.21a1.12,1.12,0,1,0,1.13,1.12,1.12,1.12,0,0,0-1.13-1.12" transform="translate(-131.25 -267.78)"/><path class="cls-1" d="M144.45,283.65a4.72,4.72,0,1,0,4.72,4.72,4.73,4.73,0,0,0-4.72-4.72m0,7.74a3,3,0,1,1,3-3,3,3,0,0,1-3,3" transform="translate(-131.25 -267.78)"/><path class="cls-1" d="M148.19,298h-7.65a5.77,5.77,0,0,1-5.76-5.76v-7.66a5.77,5.77,0,0,1,5.76-5.76h7.65a5.77,5.77,0,0,1,5.76,5.76v7.66a5.77,5.77,0,0,1-5.76,5.76m-7.65-17.37a4,4,0,0,0-4,4v7.66a4,4,0,0,0,4,3.95h7.65a4,4,0,0,0,4-3.95v-7.66a4,4,0,0,0-4-4Z" transform="translate(-131.25 -267.78)"/><path class="cls-2" d="M155.22,300.89H140.37a9.12,9.12,0,0,1-9.12-9.13V276.91a9.12,9.12,0,0,1,9.12-9.13h14.85a9.13,9.13,0,0,1,9.13,9.13v14.85a9.13,9.13,0,0,1-9.13,9.13" transform="translate(-131.25 -267.78)"/><path class="cls-1" d="M149.52,273.43a12.46,12.46,0,0,0-12,5.3c-2.37,3.72-1.86,8.13-.06,10.35a4.76,4.76,0,0,0,2,1.47.56.56,0,0,0,.83-.38c.15-.53.27-1.06.41-1.59.08-.35-.12-.55-.39-.89-2.12-2.66-1.05-8.47,3.64-10.63,4.08-1.9,10.53-.63,10.88,5.25.17,2.95-.75,7.11-3.15,8.84-2.59,1.89-5.62.05-5-2.52.78-3.13,1.8-5.24,1.42-6.86-.63-2.61-4.22-2.37-5.22.8a6.5,6.5,0,0,0,.17,4.33.59.59,0,0,1,.05.39c-2.2,9.28-2.42,10.77-2.47,12.48,0,.37,0,.75,0,1.12h2.64c1-1.91,1.17-3.78,2.22-7.9l.07-.23a7.49,7.49,0,0,0,.49.6c2.27,2.32,7.21,2.07,10.26-1.71a14,14,0,0,0,2.56-9.82c-.63-4.14-4-7.79-9.35-8.4" transform="translate(-131.25 -267.78)"/></svg>