<svg id="Layer_1" data-name="Layer 1" xmlns="http://www.w3.org/2000/svg" viewBox="0 0 51.94 34.77"><defs><style>.cls-1{fill:#8b3392;}.cls-2,.cls-3{fill:#fff;}.cls-2{fill-rule:evenodd;}</style></defs><title>Rocket</title><rect class="cls-1" width="51.94" height="34.77"/><polygon class="cls-2" points="36.2 5.65 30.03 11.82 30.46 15.28 31.6 12.9 35.11 17.39 40.04 2.24 23.64 9.06 28.08 11.38 36.2 5.65"/><path class="cls-3" d="M139.67,291.26h-6.49a4.51,4.51,0,0,0-.05,8.93h6.54V293.7a2,2,0,0,1,1,3.78c.33.38,1.63,1.79,1.63,1.79a4.47,4.47,0,0,0-2.66-8m-2.37,6.49h-3.63a2,2,0,0,1-.22-4.05h3.85Z" transform="translate(-108.84 -274.79)"/><path class="cls-2" d="M153.26,294.51h-2.39l-1,2.38h3a.46.46,0,1,1,0,.92h-5.25v-4.12h8.06v-2.43H154.5c-.35-5-6.37-5.18-7.95-2.43.31.25,1.78,1.56,1.78,1.56a2.06,2.06,0,0,1,3.79.87h-6.87v8.93H153a2.77,2.77,0,0,0,2.76-2.44,2.93,2.93,0,0,0-2.48-3.24" transform="translate(-108.84 -274.79)"/><path class="cls-2" d="M130.1,291.26H127a8.18,8.18,0,0,0,.7,9.85l1.79-1.52a6,6,0,0,1,.65-8.33" transform="translate(-108.84 -274.79)"/><path class="cls-2" d="M122.11,301.19a2,2,0,1,1-2-2,2,2,0,0,1,2,2" transform="translate(-108.84 -274.79)"/><path class="cls-2" d="M117.92,291.26a4.51,4.51,0,0,0,0,8.93h0a2.46,2.46,0,0,1,4.48,0h2v-8.93Zm4.11,6.49h-3.62a2,2,0,0,1-.22-4.05H122Z" transform="translate(-108.84 -274.79)"/><path class="cls-2" d="M120.25,289.15a1.12,1.12,0,0,0-.11-2.14H118v3.11h.87v-1l1,1h1.35Zm-.1-1.1a.22.22,0,0,1-.21.21h-1v-.44h1a.21.21,0,0,1,.21.21Z" transform="translate(-108.84 -274.79)"/><path class="cls-2" d="M122.73,287a1.58,1.58,0,1,0,1.58,1.58,1.58,1.58,0,0,0-1.58-1.58m0,2.27a.69.69,0,1,1,.69-.69.69.69,0,0,1-.69.69" transform="translate(-108.84 -274.79)"/><path class="cls-2" d="M131.67,287.86h1.42V287h-1.2a1.58,1.58,0,1,0,0,3.16h1.2v-.92h-1.42a.66.66,0,0,1-.51-.25h1.93v-.83h-1.93a.66.66,0,0,1,.51-.25" transform="translate(-108.84 -274.79)"/><path class="cls-2" d="M126,289.19a.65.65,0,0,1-.65-.64v0a.66.66,0,0,1,.65-.65h1.35V287h-1.21a1.58,1.58,0,1,0,0,3.16h1.21v-.92Z" transform="translate(-108.84 -274.79)"/><polygon class="cls-2" points="27.55 12.22 24.49 12.22 24.49 13.03 25.61 13.03 25.61 15.27 26.43 15.27 26.43 13.03 27.55 13.03 27.55 12.22"/><polygon class="cls-3" points="20.28 13.73 21.78 12.22 20.57 12.22 19.72 13.07 19.72 12.22 18.9 12.22 18.9 15.27 19.72 15.27 19.72 14.39 20.59 15.27 21.8 15.27 20.28 13.73"/><path class="cls-3" d="M141.41,301.7a.62.62,0,0,0-.36.26.72.72,0,0,0-.14.41.52.52,0,0,0,.05.24q.06.15.18.15a.27.27,0,0,0,.14-.06l.09.23a.51.51,0,0,1-.22.07.48.48,0,0,1-.29-.11.71.71,0,0,1-.15-.24.91.91,0,0,1,0-.27v-.08a1,1,0,0,1,.29-.63,2.18,2.18,0,0,1,.21-.2h.31v.22h-.08" transform="translate(-108.84 -274.79)"/><path class="cls-3" d="M142.78,301.69V303h-.26v-.17a.37.37,0,0,0-.13-.22,1.2,1.2,0,0,0-.21-.17.41.41,0,0,0-.26-.09.24.24,0,0,0-.21.13v0a.11.11,0,0,0,0,.1.18.18,0,0,0,.1,0l.19-.06.08.23a.67.67,0,0,1-.29.09.39.39,0,0,1-.23-.07.42.42,0,0,1-.16-.19.51.51,0,0,1,0-.13.38.38,0,0,1,.18-.33.43.43,0,0,1,.27-.08h0a.21.21,0,0,0-.07-.15.17.17,0,0,0-.13-.09h-.29v-.16h-.11v-.22H143v.22Zm-.26,0h-.6a.52.52,0,0,1,.26.44.93.93,0,0,1,.34.25Z" transform="translate(-108.84 -274.79)"/><polygon class="cls-3" points="34.44 26.91 34.44 28.19 34.19 28.19 34.19 26.91 33.99 26.91 33.99 26.68 34.61 26.68 34.61 26.91 34.44 26.91"/><path class="cls-3" d="M144.52,301.69h-1.16v-.22H145v.22h-.17V303h-.23c0-.07-.14-.17-.34-.31a1.7,1.7,0,0,0-.33-.16,1.14,1.14,0,0,0-.37-.09l-.07-.25a3,3,0,0,1,.5-.25l.57-.23m0,.28-.15.06-.44.19-.05,0a2.07,2.07,0,0,1,.58.32l.06,0Z" transform="translate(-108.84 -274.79)"/><polygon class="cls-3" points="36.45 26.91 36.45 28.19 36.19 28.19 36.19 26.91 36 26.91 36 26.68 36.62 26.68 36.62 26.91 36.45 26.91"/><path class="cls-3" d="M145.37,301.69v-.22h.76v0a.23.23,0,0,0-.17-.23h-.05l-.1,0-.1,0-.11,0a.53.53,0,0,1-.15.08l-.08-.19a1.42,1.42,0,0,1,.39-.17l.19,0a.43.43,0,0,1,.22.07.48.48,0,0,1,.21.42h.15v.22Zm.89,1.51a2.78,2.78,0,0,0-.33-.27,1.52,1.52,0,0,0-.28-.13l-.19-.05v-.3h.2a.78.78,0,0,0,.29,0q.21-.09.21-.21a.19.19,0,0,0-.08-.14l-.16-.09h0l-.1,0c-.05,0-.07,0-.07.08s.08.09.21.08l-.14.21a.24.24,0,0,1-.17-.05.33.33,0,0,1-.16-.26.28.28,0,0,1,.17-.24.56.56,0,0,1,.3-.07.23.23,0,0,1,.12,0l.11.05a.43.43,0,0,1,.26.41.36.36,0,0,1-.16.31.75.75,0,0,1-.35.13l.2.11a4.06,4.06,0,0,1,.35.3Z" transform="translate(-108.84 -274.79)"/><path class="cls-3" d="M148.06,301.69V303h-.25v-.51a.24.24,0,0,0-.06-.14.19.19,0,0,0-.12-.07.17.17,0,0,0-.12.08.31.31,0,0,0,0,.17h-.28a.36.36,0,0,0-.05-.19.17.17,0,0,0-.13-.08.2.2,0,0,0-.18.15v.09c0,.13.08.2.24.2l.13,0-.09.26H147a.48.48,0,0,1-.33-.13.49.49,0,0,1-.1-.16.57.57,0,0,1,0-.18.49.49,0,0,1,.12-.34A.49.49,0,0,1,147,302a.39.39,0,0,1,.33.19.37.37,0,0,1,.3-.19.29.29,0,0,1,.18.08v-.38h-1.39v-.22h1.79v.22Z" transform="translate(-108.84 -274.79)"/><path class="cls-3" d="M150,301.69h-1.16v-.22h1.61v.22h-.18V303H150c0-.07-.13-.17-.33-.31a1.83,1.83,0,0,0-.34-.16,1.08,1.08,0,0,0-.37-.09l-.07-.25a3,3,0,0,1,.5-.25l.57-.23m0,.28-.16.06-.44.19,0,0a2.13,2.13,0,0,1,.59.32l.06,0Z" transform="translate(-108.84 -274.79)"/><path class="cls-3" d="M150.87,301.69a.56.56,0,0,0-.12.28,2.54,2.54,0,0,0,.12.41,1.05,1.05,0,0,1,.07.3.32.32,0,0,1-.26.31,1,1,0,0,1-.27.05l0-.22c.15,0,.22-.09.22-.16a1,1,0,0,0-.09-.33,1,1,0,0,1-.1-.31.75.75,0,0,1,.11-.33h-.26v-.22H151v.22Z" transform="translate(-108.84 -274.79)"/><polygon class="cls-3" points="42.58 26.91 42.58 28.19 42.33 28.19 42.33 26.91 42.14 26.91 42.14 26.68 42.75 26.68 42.75 26.91 42.58 26.91"/><path class="cls-3" d="M152,302.3a.36.36,0,0,1-.29-.11.42.42,0,0,1-.11-.29.39.39,0,0,1,.11-.28.41.41,0,0,1,.28-.11.35.35,0,0,1,.33.23.41.41,0,0,1,0,.19.4.4,0,0,1-.09.27.33.33,0,0,1-.27.1m.28.83a3.66,3.66,0,0,0-.66-.49v-.36a4.13,4.13,0,0,1,.88.77v.26Zm-.23-1.35a.1.1,0,0,0-.07,0c-.1,0-.15.06-.15.14a.21.21,0,0,0,0,.12.16.16,0,0,0,.11.05h0c.08,0,.11-.06.11-.13a.17.17,0,0,0-.08-.15" transform="translate(-108.84 -274.79)"/><path class="cls-3" d="M154.13,301.32a1.49,1.49,0,0,0-.74-.28.57.57,0,0,0-.49.21.34.34,0,0,0-.06.22H153v.22h-.18V303h-.27v-1.29h-.17v-.22h.17a.65.65,0,0,1,.18-.44.83.83,0,0,1,.47-.22h.17a1.32,1.32,0,0,1,.47.1l.41.24Z" transform="translate(-108.84 -274.79)"/><path class="cls-3" d="M153.91,301.69h0a.93.93,0,0,1,.34.1.43.43,0,0,1,.25.37.32.32,0,0,1-.09.23.33.33,0,0,1-.21.13.62.62,0,0,1-.23,0v-.24h.08c.13,0,.2-.05.2-.14s-.11-.18-.34-.21v1h-.22l-.11-.17a.48.48,0,0,1-.1-.12.38.38,0,0,0-.09-.09l-.09-.09-.06,0a.83.83,0,0,0-.27-.06l-.07-.26c.06,0,.18-.12.38-.23l.18-.1.2-.12v0h-.82v-.22h1.77v.22Zm-.25.3-.2.13-.07.05-.08.08.13.1.22.24Z" transform="translate(-108.84 -274.79)"/><path class="cls-3" d="M155,302.3a.38.38,0,0,1-.29-.11.42.42,0,0,1-.11-.29.36.36,0,0,1,.12-.28.37.37,0,0,1,.27-.11.34.34,0,0,1,.33.23.41.41,0,0,1,.05.19.41.41,0,0,1-.1.27.33.33,0,0,1-.27.1m.28.83a3.66,3.66,0,0,0-.66-.49v-.36a4.13,4.13,0,0,1,.88.77v.26Zm-.22-1.35a.12.12,0,0,0-.08,0c-.1,0-.15.06-.15.14a.21.21,0,0,0,.05.12.16.16,0,0,0,.11.05h0a.13.13,0,0,0,.11-.13.19.19,0,0,0-.08-.15" transform="translate(-108.84 -274.79)"/><polygon class="cls-3" points="17.75 28.3 18.23 28.46 18.42 28.3 17.94 28.13 17.75 28.3"/><path class="cls-3" d="M126.74,301.76v-.29H123v.29h.63v.65h.55s.15-.05.19-.13v.26a.21.21,0,0,1-.19.21h-.8s-.1,0-.1-.21v-.61H123v.78c0,.06,0,.29.24.29h1.09a.35.35,0,0,0,.29-.33v-.74h-.25c0,.12,0,.19-.13.22h-.32v-.39h.93V303h.32v-1.24h.22V303h1a.33.33,0,0,0,.32-.34v-.73h-.25c0,.07,0,.18-.13.18h-.7v-.35Zm-.41.61s.11-.07.16-.13v.3c0,.11-.09.21-.16.21h-.67v-.38Z" transform="translate(-108.84 -274.79)"/><rect class="cls-3" x="18.26" y="27.32" width="0.64" height="0.34"/><path class="cls-3" d="M128.08,301.47v.29h1.06v.17h-1.06v.69c0,.23.14.38.36.38h.95v-1.24h.22V303h.29v-1.53Zm1.06,1.32h-.64c-.1,0-.16-.13-.16-.25v-.34h.8Z" transform="translate(-108.84 -274.79)"/><path class="cls-3" d="M131.28,301.76h1.3v.17h-.38a.13.13,0,0,1-.26,0h-.66v.73c0,.07,0,.31.21.34H132v-.25h-.35a.17.17,0,0,1-.13-.17v-.39h.35v.22h.32v-.17c0-.08.34-.07.35,0V303h.29v-1.24H133V303h.29v-1.53h-2Z" transform="translate(-108.84 -274.79)"/><path class="cls-3" d="M130.83,301.56h-.68v.4a.33.33,0,0,0,.33.29H131v-.49c0-.08-.08-.19-.19-.2m-.21.42c-.12,0-.22,0-.22-.1s.1-.1.22-.1.22.05.22.1-.1.1-.22.1" transform="translate(-108.84 -274.79)"/><polygon class="cls-3" points="21.36 27.61 21.36 27.87 22.18 28.21 22.18 27.94 21.36 27.61"/><path class="cls-3" d="M137.7,301.56H137v.4a.32.32,0,0,0,.32.29h.55v-.49a.24.24,0,0,0-.2-.2m-.2.42c-.12,0-.22,0-.22-.1s.1-.1.22-.1.22.05.22.1-.1.1-.22.1" transform="translate(-108.84 -274.79)"/><polygon class="cls-3" points="28.23 27.61 28.23 27.87 29.05 28.21 29.05 27.94 28.23 27.61"/><path class="cls-3" d="M139.45,301.93v-.17H140v-.29h-1.83v.29h1.05v.17h-1.05v.69c0,.23.14.38.35.38h1v-.76h.25s.05,0,.06,0v.13a.18.18,0,0,1-.06.13h-.09v.25h.19c.06,0,.18-.08.19-.17v-.69Zm-.26.86h-.64c-.09,0-.16-.13-.16-.25v-.34h.8v.59Z" transform="translate(-108.84 -274.79)"/><path class="cls-3" d="M134.18,301.47v.29h1v.17h-1v.69c0,.23.13.38.35.38h.95v-1.24h.34l-.12.24v.17h.22c.12,0,.16.1.16.3s0,.25-.14.26h-.21V303H136c.06,0,.36,0,.38-.25,0-.58.06-.73-.35-.77l.06-.2h.45V303h.29v-1.53Zm1,1.32h-.64c-.1,0-.16-.13-.16-.25v-.34h.8Z" transform="translate(-108.84 -274.79)"/></svg>