<svg id="Layer_1" data-name="Layer 1" xmlns="http://www.w3.org/2000/svg" viewBox="0 0 33.11 33.1"><defs><style>.cls-1,.cls-3{fill:#fff;}.cls-2{fill:#ff1753;}.cls-2,.cls-3,.cls-4{fill-rule:evenodd;}.cls-4{fill:#00c9d0;}</style></defs><title>Tiktok</title><path class="cls-1" d="M149.44,282.21a1.12,1.12,0,1,0,1.13,1.12,1.12,1.12,0,0,0-1.13-1.12" transform="translate(-130.46 -267.78)"/><path class="cls-1" d="M144.45,283.65a4.72,4.72,0,1,0,4.72,4.72,4.73,4.73,0,0,0-4.72-4.72m0,7.74a3,3,0,1,1,3-3,3,3,0,0,1-3,3" transform="translate(-130.46 -267.78)"/><path class="cls-1" d="M148.19,298h-7.65a5.77,5.77,0,0,1-5.76-5.76v-7.66a5.77,5.77,0,0,1,5.76-5.76h7.65a5.77,5.77,0,0,1,5.76,5.76v7.66a5.77,5.77,0,0,1-5.76,5.76m-7.65-17.37a4,4,0,0,0-4,4v7.66a4,4,0,0,0,4,3.95h7.65a4,4,0,0,0,4-3.95v-7.66a4,4,0,0,0-4-4Z" transform="translate(-130.46 -267.78)"/><path d="M154.44,300.89H139.59a9.13,9.13,0,0,1-9.13-9.13V276.91a9.13,9.13,0,0,1,9.13-9.13h14.85a9.13,9.13,0,0,1,9.13,9.13v14.85a9.13,9.13,0,0,1-9.13,9.13" transform="translate(-130.46 -267.78)"/><path class="cls-2" d="M151.31,281.75a8.1,8.1,0,0,0,4.7,1.5v-3.37a5.54,5.54,0,0,1-1-.1v2.65a8.12,8.12,0,0,1-4.7-1.5v6.88a6.24,6.24,0,0,1-9.71,5.18,6.24,6.24,0,0,0,10.7-4.36Zm1.22-3.4a4.72,4.72,0,0,1-1.22-2.76v-.43h-.94a4.75,4.75,0,0,0,2.16,3.19m-9.74,12a2.86,2.86,0,0,1,2.27-4.58,2.82,2.82,0,0,1,.87.13v-3.45a6.57,6.57,0,0,0-1-.05v2.68a2.8,2.8,0,0,0-.86-.13,2.85,2.85,0,0,0-1.29,5.4" transform="translate(-130.46 -267.78)"/><path class="cls-3" d="M150.32,280.93a8.12,8.12,0,0,0,4.7,1.5v-2.65a7.47,7.47,0,0,1-4.65-4.62h-2.45v13.47a3.38,3.38,0,1,1-3.85-3.68,2.73,2.73,0,0,1,.87.13V282.4a5.84,5.84,0,1,0,5.38,5.41Z" transform="translate(-130.46 -267.78)"/><path class="cls-4" d="M155,279.78v-.72a4.76,4.76,0,0,1-2.49-.71,4.76,4.76,0,0,0,2.49,1.43m-4.65-4.62c0-.13,0-.26-.05-.39v-.43h-3.39v13.47a2.86,2.86,0,0,1-2.86,2.84,2.9,2.9,0,0,1-1.28-.3,2.86,2.86,0,0,0,5.13-1.72V275.16Zm-5.43,7.24v-.77a8.11,8.11,0,0,0-.86-.05A6.23,6.23,0,0,0,140.61,293a6.23,6.23,0,0,1,4.33-10.59" transform="translate(-130.46 -267.78)"/></svg>