<svg id="Layer_1" data-name="Layer 1" xmlns="http://www.w3.org/2000/svg" viewBox="0 0 33.1 33.1"><defs><style>.cls-1{fill:#fff;}.cls-2{fill:#0cf;}</style></defs><title>Twitter</title><path class="cls-1" d="M149.44,282.21a1.12,1.12,0,1,0,1.13,1.12,1.12,1.12,0,0,0-1.13-1.12" transform="translate(-131.03 -267.78)"/><path class="cls-1" d="M144.45,283.65a4.72,4.72,0,1,0,4.72,4.72,4.73,4.73,0,0,0-4.72-4.72m0,7.74a3,3,0,1,1,3-3,3,3,0,0,1-3,3" transform="translate(-131.03 -267.78)"/><path class="cls-1" d="M148.19,298h-7.65a5.77,5.77,0,0,1-5.76-5.76v-7.66a5.77,5.77,0,0,1,5.76-5.76h7.65a5.77,5.77,0,0,1,5.76,5.76v7.66a5.77,5.77,0,0,1-5.76,5.76m-7.65-17.37a4,4,0,0,0-4,4v7.66a4,4,0,0,0,4,3.95h7.65a4,4,0,0,0,4-3.95v-7.66a4,4,0,0,0-4-4Z" transform="translate(-131.03 -267.78)"/><path class="cls-2" d="M155,300.89H140.16a9.13,9.13,0,0,1-9.13-9.13V276.91a9.13,9.13,0,0,1,9.13-9.13H155a9.12,9.12,0,0,1,9.12,9.13v14.85a9.12,9.12,0,0,1-9.12,9.13" transform="translate(-131.03 -267.78)"/><path class="cls-1" d="M156.62,278.85a7.62,7.62,0,0,1-1.81.51c.29-.05.72-.57.89-.79a3.23,3.23,0,0,0,.6-1.09s0-.07,0-.09a.08.08,0,0,0-.09,0,9.56,9.56,0,0,1-2.14.82.16.16,0,0,1-.15,0,1.66,1.66,0,0,0-.18-.19,4,4,0,0,0-1-.64,3.75,3.75,0,0,0-1.59-.26,4,4,0,0,0-1.51.43,3.82,3.82,0,0,0-1.94,2.45,4.15,4.15,0,0,0,0,1.53c0,.09,0,.1-.07.09a11.45,11.45,0,0,1-7.35-3.74c-.08-.1-.13-.1-.2,0a3.72,3.72,0,0,0,.64,4.4,5.82,5.82,0,0,0,.45.4,3.84,3.84,0,0,1-1.42-.4c-.09-.06-.13,0-.14.07a2,2,0,0,0,0,.42,3.76,3.76,0,0,0,2.32,3,2.54,2.54,0,0,0,.47.14,4.11,4.11,0,0,1-1.39,0c-.1,0-.14,0-.1.13a3.9,3.9,0,0,0,2.92,2.45c.13,0,.26,0,.4.05l0,0a4.55,4.55,0,0,1-2,1,7.11,7.11,0,0,1-3,.39c-.17,0-.2,0-.24,0s0,.07,0,.11c.21.14.42.26.63.38a10.49,10.49,0,0,0,2,.81,10.81,10.81,0,0,0,10.47-2.45,11,11,0,0,0,2.9-8c0-.12.14-.18.22-.24a7.17,7.17,0,0,0,1.43-1.48.47.47,0,0,0,.09-.29h0c0-.05,0,0-.07,0" transform="translate(-131.03 -267.78)"/></svg>