<svg id="Layer_1" data-name="Layer 1" xmlns="http://www.w3.org/2000/svg" viewBox="0 0 53.73 36.17"><defs><style>.cls-1,.cls-4{fill:#005a9b;}.cls-1{fill-rule:evenodd;}.cls-2{fill:#fff;}.cls-3{fill:#faa929;}</style></defs><title>Visa</title><polygon class="cls-1" points="52.82 36.17 0.91 36.17 0 36.17 0 35.26 0 0.91 0 0 0.91 0 52.82 0 53.73 0 53.73 0.91 53.73 35.26 53.73 36.17 52.82 36.17"/><rect class="cls-2" x="0.91" y="0.91" width="51.91" height="34.34"/><polygon class="cls-1" points="19.67 23.66 23.04 12.55 26.05 12.55 22.68 23.66 19.67 23.66"/><path class="cls-1" d="M126.25,286.64l-2.7,4.71a11.81,11.81,0,0,0-1.29,2.64h0c0-1-.09-2.2-.1-2.89l-.3-4.46h-5.06l-.05.3a2.09,2.09,0,0,1,2.28,2l1,8.82h3.11l6.3-11.11Z" transform="translate(-107.93 -274.09)"/><path class="cls-1" d="M149.64,297.75l-.08-1.65h-3.75l-.77,1.65h-3.27l5.92-11.09h4l1,11.09Zm-.34-6.55a25.36,25.36,0,0,1,0-2.61h0c-.18.55-1,2.21-1.32,3l-1.12,2.44h2.64Z" transform="translate(-107.93 -274.09)"/><path class="cls-1" d="M137.13,298.07a8.38,8.38,0,0,1-4.53-1.27l1.43-2.19a5.57,5.57,0,0,0,3.24,1.09,1.4,1.4,0,0,0,1.32-.64c.42-.72-.1-1.11-1.27-1.78l-.58-.37c-1.74-1.19-2.5-2.32-1.68-4.3.53-1.26,1.91-2.22,4.19-2.22a6.76,6.76,0,0,1,3.91,1.35l-1.64,1.93a3.66,3.66,0,0,0-2.33-1,1.41,1.41,0,0,0-1.29.58c-.31.62.1,1,1,1.61l.69.44c2.11,1.33,2.62,2.73,2.09,4-.91,2.25-2.7,2.75-4.57,2.75" transform="translate(-107.93 -274.09)"/><path class="cls-1" d="M153.6,288.15h-.13v-.8h.3c.19,0,.29.07.29.23s-.09.2-.21.22l.22.35h-.14l-.21-.34h-.12Zm.14-.45c.1,0,.19,0,.19-.13s-.1-.11-.17-.11h-.16v.24Zm0,.75a.72.72,0,1,0-.71-.71.69.69,0,0,0,.71.71m0-1.31a.56.56,0,0,0-.55.6.55.55,0,1,0,1.1,0,.56.56,0,0,0-.55-.6" transform="translate(-107.93 -274.09)"/><rect class="cls-3" x="2.28" y="27.11" width="49.26" height="6.59"/><rect class="cls-4" x="2.19" y="2.56" width="49.26" height="6.59"/></svg>