<svg id="Layer_1" data-name="Layer 1" xmlns="http://www.w3.org/2000/svg" viewBox="0 0 33.11 33.1"><defs><style>.cls-1{fill:#00d954;}.cls-2,.cls-3{fill:#fff;}.cls-3{fill-rule:evenodd;}</style></defs><title>Whatsapp</title><path class="cls-1" d="M154.66,300.89H139.81a9.13,9.13,0,0,1-9.13-9.13V276.91a9.13,9.13,0,0,1,9.13-9.13h14.85a9.12,9.12,0,0,1,9.12,9.13v14.85a9.12,9.12,0,0,1-9.12,9.13" transform="translate(-130.68 -267.78)"/><path class="cls-2" d="M138.4,293.87l1.36-5.09a9.42,9.42,0,1,1,3.75,3.72Zm5.36-3.27.33.19a7.61,7.61,0,1,0-2.62-2.59l.2.32-.76,2.84Z" transform="translate(-130.68 -267.78)"/><path class="cls-3" d="M151.47,285.55a1.58,1.58,0,0,0-1.35-.3c-.35.14-.57.69-.8,1a.32.32,0,0,1-.43.09,6,6,0,0,1-3-2.6.37.37,0,0,1,.05-.51,2.06,2.06,0,0,0,.55-.9,1.91,1.91,0,0,0-.25-1.06,2.53,2.53,0,0,0-.78-1.18,1.1,1.1,0,0,0-1.17.17,2.37,2.37,0,0,0-.82,1.88,2.33,2.33,0,0,0,.08.59,4.55,4.55,0,0,0,.57,1.32c.18.31.38.62.59.91a9.26,9.26,0,0,0,2.59,2.4,7.41,7.41,0,0,0,1.61.76,3.56,3.56,0,0,0,1.88.3,2.3,2.3,0,0,0,1.7-1.27,1.18,1.18,0,0,0,.08-.64c-.1-.45-.7-.71-1.06-.93" transform="translate(-130.68 -267.78)"/></svg>