<svg id="Layer_1" data-name="Layer 1" xmlns="http://www.w3.org/2000/svg" viewBox="0 0 33.11 33.1"><defs><style>.cls-1{fill:red;}.cls-2{fill:#fff;}</style></defs><title>Youtube</title><path class="cls-1" d="M154.87,300.89H140a9.13,9.13,0,0,1-9.13-9.13V276.91a9.13,9.13,0,0,1,9.13-9.13h14.85a9.13,9.13,0,0,1,9.13,9.13v14.85a9.13,9.13,0,0,1-9.13,9.13" transform="translate(-130.89 -267.78)"/><path class="cls-2" d="M156.2,282.34a3.93,3.93,0,0,0-3.93-3.93h-10a3.93,3.93,0,0,0-3.92,3.93V287a3.93,3.93,0,0,0,3.92,3.93h10A3.93,3.93,0,0,0,156.2,287ZM150.3,285l-4.51,2.22c-.17.1-.77,0-.77-.23v-4.57c0-.21.6-.33.78-.23l4.31,2.34c.18.11.37.37.19.47" transform="translate(-130.89 -267.78)"/></svg>