<svg id="Layer_1" data-name="Layer 1" xmlns="http://www.w3.org/2000/svg" viewBox="0 0 237.5 100.24"><defs><style>.cls-1,.cls-2,.cls-3,.cls-5,.cls-6{isolation:isolate;}.cls-2,.cls-3,.cls-5,.cls-6{font-size:8.51px;font-family:TrebuchetMS-Bold, Trebuchet MS;font-weight:700;}.cls-2{letter-spacing:0.54em;}.cls-3{letter-spacing:0.54em;}.cls-4{letter-spacing:0.48em;}.cls-5{letter-spacing:0.5em;}</style></defs><title>KE_black</title><path d="M112.26,40.55c4.3,0,6.9-.53,6.9-7.9V31c0-6.9-1.64-8-6.9-8-4.68,0-6.89.79-6.89,8v1.69c0,6.76,1.72,7.9,6.89,7.9m3.28-8.12c0,5-.68,5.16-3.28,5.16-2.75,0-3.27-.16-3.27-5.16V31.07c0-5,.68-5.16,3.27-5.16,2.76,0,3.28.16,3.28,5.16Z" transform="translate(0)"/><path d="M142.7,40.55c4.29,0,6.89-.53,6.89-7.9V31c0-6.9-1.64-8-6.89-8-4.69,0-6.9.79-6.9,8v1.69c0,6.76,1.72,7.9,6.9,7.9M146,32.43c0,5-.68,5.16-3.27,5.16-2.76,0-3.28-.16-3.28-5.16V31.07c0-5,.68-5.16,3.28-5.16,2.75,0,3.27.16,3.27,5.16Z" transform="translate(0)"/><path d="M229.94,23c-4.69,0-6.9.79-6.9,8v1.69c0,6.76,1.72,7.9,6.9,7.9,4.29,0,6.9-.53,6.9-7.9V31c0-6.9-1.64-8-6.9-8m-3.28,8.12c0-5,.68-5.16,3.28-5.16,2.76,0,3.28.16,3.28,5.16v1.35c0,5-.68,5.16-3.28,5.16-2.76,0-3.28-.16-3.28-5.16Z" transform="translate(0)"/><path d="M121.58,40.55h3.55V34.87h1.81c5.2,0,7.14-1.71,7.14-6.29,0-4.78-2-5.59-6.39-5.59a47.35,47.35,0,0,0-4.91.26,1.27,1.27,0,0,0-1.27,1.27V40.26Zm3.61-14.46c.58,0,1.44-.08,2.29-.08,2.53,0,3,.37,3,2.64,0,2.64-.59,3.21-3.31,3.21h-2Z" transform="translate(0)"/><path d="M162.61,40.17v.38h3.67l1.2-4.27h5.65l1.3,4.31h3.66v-.38a4.75,4.75,0,0,0-.19-.83l-4.52-15c-.42-1.39-1.08-1.51-3-1.51s-2.66.12-3.07,1.51L162.84,39.3a3.44,3.44,0,0,0-.19.83m5.68-6.81,2-7.08,2,7.08Z" transform="translate(0)"/><path d="M104.57,39l-5.29-7.34,5.17-7.31a2.15,2.15,0,0,0,.41-1v-.39H101l-4.85,7.25h-.63V23.5a.89.89,0,0,0,0-.23V23H92v.32a.89.89,0,0,0,0,.23v17h3.49V33.22h.6l5.17,7.41h4l-.07-.42a3.22,3.22,0,0,0-.64-1.16" transform="translate(0)"/><path d="M178.83,40.55h3.56V33.23h.6l5.17,7.41h4l-.08-.42a3.22,3.22,0,0,0-.64-1.16l-5.25-7.43,5.16-7.31a1.93,1.93,0,0,0,.41-1v-.39h-3.82L183,30.16h-.63V23.48a.89.89,0,0,0,0-.23v-.32h-3.53v.32a.89.89,0,0,0,0,.23V40.22Z" transform="translate(0)"/><path d="M206.54,40.13A2.88,2.88,0,0,0,205.9,39l-5.28-7.34,5.16-7.31a2,2,0,0,0,.42-1v-.39h-3.82l-4.91,7.23h-.62V23.48a.89.89,0,0,0,0-.23v-.32h-3.53v.32a.89.89,0,0,0,0,.23V40.53h3.55V33.16h.6l5.16,7.41h4Z" transform="translate(0)"/><path d="M207.74,40.55h3.56v-.33a.21.21,0,0,0,0-.11v-7H217v7.43h3.56v-.33a.21.21,0,0,0,0-.11V23H217v7h-5.71V23.5a.89.89,0,0,0,0-.23V23h-3.53v.32a.89.89,0,0,0,0,.23V40.22Z" transform="translate(0)"/><path d="M151.73,26.14h3.54V40.55h3.54l.06-.28V26.14h3.58a1.35,1.35,0,0,0,.49-.07l.23-.08V23.1l-.23-.08a1.35,1.35,0,0,0-.49-.07H151.73a2,2,0,0,0-.48.06l-.24.08V26l.24.08a1.55,1.55,0,0,0,.48.07" transform="translate(0)"/><path d="M98.38,53.19c-2.41,0-6.46,0-6.46,4.42v9c0,4.4,4,4.4,6.46,4.4.88,0,2.6,0,4.21-.07h.86v-3.1H98.31c-2.74,0-2.74-.25-2.74-2.18V63.58h7.53V60.42H95.57V58.65c0-1.94,0-2.19,2.74-2.19h5.14V53.32h-.86c-1.45-.06-3.15-.1-4.21-.1" transform="translate(0)"/><path d="M108.83,65.62V53.19h-3.64V66.61c0,4.41,4,4.41,6.46,4.41,1.42,0,2.69,0,3.89-.06h.86V67.83h-4.82c-2.74,0-2.74-.25-2.74-2.18" transform="translate(0)"/><path d="M124.58,53.19c-2.42,0-6.46,0-6.46,4.42v9c0,4.4,4,4.4,6.46,4.4.88,0,2.59,0,4.21-.07h.86v-3.1h-5.14c-2.74,0-2.74-.25-2.74-2.18V63.58h7.53V60.42h-7.53V58.65c0-1.94,0-2.19,2.74-2.19h5.14V53.32h-.86c-1.46-.06-3.15-.1-4.21-.1" transform="translate(0)"/><path d="M137.32,53.19c-2.42,0-6.46,0-6.46,4.42v9c0,4.4,4,4.4,6.46,4.4.51,0,3.16,0,4.93-.07h.85v-3.1h-5.85c-2.74,0-2.74-.25-2.74-2.18v-7c0-1.94,0-2.19,2.74-2.19h5.85V53.32h-.85c-1.49-.06-3.92-.1-4.93-.1" transform="translate(0)"/><path d="M216.62,53.19c-2.41,0-6.46,0-6.46,4.42v9c0,4.4,4.05,4.4,6.46,4.4.52,0,3.17,0,4.93-.07h.86v-3.1h-5.86c-2.74,0-2.74-.25-2.74-2.18v-7c0-1.94,0-2.19,2.74-2.19h5.86V53.32h-.86c-1.49-.06-3.91-.1-4.93-.1" transform="translate(0)"/><path d="M178.43,53c-6.2,0-7.45,3.45-7.45,9s1.25,9,7.45,9,7.44-3.44,7.44-9-1.24-9-7.44-9m0,14.79c-3.62,0-3.77-1.77-3.77-5.78s.15-5.79,3.77-5.79,3.77,1.88,3.77,5.79-.16,5.78-3.77,5.78" transform="translate(0)"/><path d="M198.19,64.72l-6.7-10.17a2.94,2.94,0,0,0-2.4-1.54,2,2,0,0,0-2,2V70.86h3.49V59.31l6.7,10.16A2.84,2.84,0,0,0,199.69,71a2,2,0,0,0,2-2V53.17h-3.5Z" transform="translate(0)"/><rect x="204.23" y="53.19" width="3.65" height="17.83"/><path d="M169.38,65.26h0A6,6,0,0,0,168,62.55a5.1,5.1,0,0,0,2.18-4.2,4.94,4.94,0,0,0-1.5-3.55c-1.24-1.17-3-1.72-5.54-1.72-1.31,0-5.12.12-5.12.12V71h3.65V64h1.71c1.54.08,2.17.67,2.58,2.43a31.4,31.4,0,0,0,1.37,4.32l.14.32h4l-.33-.74a38,38,0,0,1-1.76-5m-7.71-8.86a14.08,14.08,0,0,1,1.45-.07c3.4,0,3.4,1.62,3.4,2.15,0,1.33-1.13,2.13-3,2.13h-1.83Z" transform="translate(0)"/><path d="M156.19,53.19H145.42a2,2,0,0,0-.54.07l-.36.12v3.14l.37.12a1.58,1.58,0,0,0,.53.07h3.36V71.07h3.86l.09-.42a.89.89,0,0,0,0-.23V56.71h3.46a1.7,1.7,0,0,0,.55-.07l.35-.13V53.42l-.35-.12a1.47,1.47,0,0,0-.55-.08" transform="translate(0)"/><path d="M230.85,60.34h0c-3.14-.84-3.23-1.08-3.23-2.38,0-.59,0-1.56,3.76-1.56.6,0,2.74,0,3.53.12l.59.06V53.42l-.47-.06c-.85-.09-3.3-.17-4.39-.17-2.87,0-6.67.53-6.67,5.07,0,3.43,2.35,4.36,5.42,5.22,2.44.69,3.11,1.05,3.11,2.32s-.52,2-3.26,2c-.78,0-3.09,0-4-.13l-.58,0v3.23l.48.05c.79.08,3.16.12,4.15.12,4.65,0,6.91-1.73,6.91-5.3s-2.71-4.67-5.37-5.38" transform="translate(0)"/><path d="M1.9,0S-7.23,19.2,14.52,35.67C35.06,51.22,51.93,55.62,51.93,55.62S12,45.36.35,26.47C.78,30.26-4.19,52.69,44.41,71c-5.94-.9-15.37-2.66-32.32-14.11,2.3,5.9,7.09,20.13,39.9,32.69,7.77,3,31.07,7.52,36.83,7.52" transform="translate(0)"/><path d="M88.82,97.13c-1.1-11.19-3-41.1-12.1-48.23S29.43,25.29,24.9,22.62,5,10.69,1.9,0" transform="translate(0)"/><g class="cls-1"><text class="cls-2" transform="translate(91.92 97.95)">B</text><text class="cls-3" transform="translate(101.57 97.95)">ETTER</text><text class="cls-2" transform="translate(149.82 97.95)"> </text><text class="cls-2" transform="translate(156.97 97.95)">|</text><text class="cls-2" transform="translate(166.55 97.95)"><tspan xml:space="preserve"> SM</tspan><tspan class="cls-4" x="27.04" y="0">A</tspan></text><text class="cls-5" transform="translate(203.53 97.95)">R</text><text class="cls-2" transform="translate(212.97 97.95)">TE</text><text class="cls-6" transform="translate(232.2 97.95)">R</text></g></svg>