<svg id="Layer_1" data-name="Layer 1" xmlns="http://www.w3.org/2000/svg" viewBox="0 0 237.51 100.24"><defs><style>.cls-1,.cls-2{fill:#fff;}.cls-2{font-size:8.51px;font-family:TrebuchetMS-Bold, Trebuchet MS;font-weight:700;}.cls-3{letter-spacing:0.54em;}.cls-4{letter-spacing:0.54em;}.cls-5{letter-spacing:0.54em;}.cls-6{letter-spacing:0.5em;}</style></defs><title>KE_white</title><path class="cls-1" d="M139.07,270.13c4.3,0,6.9-.53,6.9-7.9v-1.69c0-6.9-1.64-8-6.9-8-4.68,0-6.89.79-6.89,8v1.69c0,6.76,1.72,7.9,6.89,7.9m3.28-8.12c0,5-.68,5.16-3.28,5.16-2.75,0-3.27-.16-3.27-5.16v-1.36c0-5,.68-5.16,3.27-5.16,2.76,0,3.28.16,3.28,5.16Z" transform="translate(-26.81 -229.58)"/><path class="cls-1" d="M169.51,270.13c4.29,0,6.89-.53,6.89-7.9v-1.69c0-6.9-1.64-8-6.89-8-4.69,0-6.9.79-6.9,8v1.69c0,6.76,1.72,7.9,6.9,7.9m3.27-8.12c0,5-.68,5.16-3.27,5.16-2.76,0-3.28-.16-3.28-5.16v-1.36c0-5,.68-5.16,3.28-5.16,2.75,0,3.27.16,3.27,5.16Z" transform="translate(-26.81 -229.58)"/><path class="cls-1" d="M256.75,252.53c-4.69,0-6.9.79-6.9,8v1.69c0,6.76,1.72,7.9,6.9,7.9,4.29,0,6.9-.53,6.9-7.9v-1.69c0-6.9-1.64-8-6.9-8m-3.28,8.12c0-5,.68-5.16,3.28-5.16,2.76,0,3.28.16,3.28,5.16V262c0,5-.68,5.16-3.28,5.16-2.76,0-3.28-.16-3.28-5.16Z" transform="translate(-26.81 -229.58)"/><path class="cls-1" d="M148.39,270.13h3.22l.33,0,0-.33v-5.35h1.81c5.2,0,7.14-1.71,7.14-6.29,0-4.78-2-5.59-6.39-5.59a47.91,47.91,0,0,0-4.91.26,1.27,1.27,0,0,0-1.27,1.37v15.49c0,.05,0,.08,0,.15ZM152,255.67c.58,0,1.44-.08,2.29-.08,2.53,0,3,.37,3,2.64,0,2.64-.59,3.21-3.31,3.21H152Z" transform="translate(-26.81 -229.58)"/><path class="cls-1" d="M189.42,269.75l0,.38h3.39l.28,0,1.2-4.27h5.65l1.3,4.31h3.66l0-.38a4.37,4.37,0,0,0-.19-.83L200.19,254c-.42-1.39-1.08-1.51-3-1.51s-2.66.12-3.07,1.51l-4.47,14.88a3.31,3.31,0,0,0-.19.83m5.68-6.81,2-7.08,2,7.08Z" transform="translate(-26.81 -229.58)"/><path class="cls-1" d="M131.38,268.55l-5.29-7.34,5.17-7.31a2.07,2.07,0,0,0,.41-1l0-.39h-3.82L123,259.76h-.63v-6.68a1.62,1.62,0,0,0,0-.23l0-.32h-3.53l0,.32a1.52,1.52,0,0,0,0,.23v16.57a.82.82,0,0,0,0,.14l0,.34H122l.33,0,0-.33v-7h.6l5.17,7.41h4l-.07-.42a3.35,3.35,0,0,0-.64-1.16" transform="translate(-26.81 -229.58)"/><path class="cls-1" d="M205.64,270.13h3.23l.33,0,0-.32v-7h.6l5.17,7.41h4l-.08-.42a3.27,3.27,0,0,0-.64-1.16L213,261.21l5.16-7.31a1.88,1.88,0,0,0,.41-1l0-.39h-3.82l-4.91,7.23h-.63v-6.68a1.62,1.62,0,0,0,0-.23l0-.32h-3.53l0,.32a1.62,1.62,0,0,0,0,.23V269.8Z" transform="translate(-26.81 -229.58)"/><path class="cls-1" d="M233.35,269.71a3,3,0,0,0-.64-1.16l-5.28-7.34,5.16-7.31a2,2,0,0,0,.42-1l0-.39h-3.82l-4.91,7.23h-.62v-6.68a1.52,1.52,0,0,0,0-.23l0-.32h-3.53l0,.32a1.62,1.62,0,0,0,0,.23v16.57a.92.92,0,0,0,0,.15l0,.33h3.22l.33,0,0-.33s0-.07,0-.11v-6.93h.6l5.16,7.41h4Z" transform="translate(-26.81 -229.58)"/><path class="cls-1" d="M234.55,270.13h3.23l.33,0,0-.33a.37.37,0,0,0,0-.11V262.7h5.71v6.95a.92.92,0,0,0,0,.15l0,.33h3.23l.33,0,0-.33a.37.37,0,0,0,0-.11V253.08c0-.09,0-.16,0-.23l0-.32h-3.54l0,.32c0,.07,0,.14,0,.23v6.41h-5.71v-6.41a1.52,1.52,0,0,0,0-.23l0-.32h-3.53l0,.32a1.62,1.62,0,0,0,0,.23v16.57a.92.92,0,0,0,0,.15Z" transform="translate(-26.81 -229.58)"/><path class="cls-1" d="M178.54,255.72h3.54v13.93s0,.07,0,.13v.35h3.54l.06-.28a1.56,1.56,0,0,0,0-.2V255.72h3.58a1.39,1.39,0,0,0,.49-.07l.23-.08v-2.89l-.23-.08a1.39,1.39,0,0,0-.49-.07H178.54a1.66,1.66,0,0,0-.48.06l-.24.08v2.9l.24.08a1.4,1.4,0,0,0,.48.07" transform="translate(-26.81 -229.58)"/><path class="cls-1" d="M125.19,282.77c-2.41,0-6.46,0-6.46,4.42v9c0,4.4,4,4.4,6.46,4.4.88,0,2.6,0,4.21-.07l.86,0v-3.1h-5.14c-2.74,0-2.74-.25-2.74-2.18v-2.08h7.53V290h-7.53v-1.77c0-1.94,0-2.19,2.74-2.19h5.14V282.9l-.86,0c-1.45-.06-3.15-.1-4.21-.1" transform="translate(-26.81 -229.58)"/><path class="cls-1" d="M135.64,295.2V282.77H132v13.42c0,4.41,4,4.41,6.46,4.41,1.42,0,2.69,0,3.89-.06l.86,0v-3.13h-4.82c-2.74,0-2.74-.25-2.74-2.18" transform="translate(-26.81 -229.58)"/><path class="cls-1" d="M151.39,282.77c-2.42,0-6.46,0-6.46,4.42v9c0,4.4,4,4.4,6.46,4.4.88,0,2.59,0,4.21-.07l.86,0v-3.1h-5.14c-2.74,0-2.74-.25-2.74-2.18v-2.08h7.53V290h-7.53v-1.77c0-1.94,0-2.19,2.74-2.19h5.14V282.9l-.86,0c-1.46-.06-3.15-.1-4.21-.1" transform="translate(-26.81 -229.58)"/><path class="cls-1" d="M164.13,282.77c-2.42,0-6.46,0-6.46,4.42v9c0,4.4,4,4.4,6.46,4.4.51,0,3.16,0,4.93-.07l.85,0v-3.1h-5.85c-2.74,0-2.74-.25-2.74-2.18v-7c0-1.94,0-2.19,2.74-2.19h5.85V282.9l-.85,0c-1.49-.06-3.92-.1-4.93-.1" transform="translate(-26.81 -229.58)"/><path class="cls-1" d="M243.43,282.77c-2.41,0-6.46,0-6.46,4.42v9c0,4.4,4.05,4.4,6.46,4.4.52,0,3.17,0,4.93-.07l.86,0v-3.1h-5.86c-2.74,0-2.74-.25-2.74-2.18v-7c0-1.94,0-2.19,2.74-2.19h5.86V282.9l-.86,0c-1.49-.06-3.91-.1-4.93-.1" transform="translate(-26.81 -229.58)"/><path class="cls-1" d="M205.24,282.59c-6.2,0-7.45,3.45-7.45,9s1.25,9,7.45,9,7.44-3.44,7.44-9-1.24-9-7.44-9m0,14.79c-3.62,0-3.77-1.77-3.77-5.78s.15-5.79,3.77-5.79,3.77,1.88,3.77,5.79-.16,5.78-3.77,5.78" transform="translate(-26.81 -229.58)"/><path class="cls-1" d="M225,294.3l-6.7-10.17a2.93,2.93,0,0,0-2.4-1.54,2,2,0,0,0-2,2.12v15.73h3.49V288.89l6.7,10.16a2.84,2.84,0,0,0,2.41,1.55,2,2,0,0,0,2-2.12V282.75H225Z" transform="translate(-26.81 -229.58)"/><rect class="cls-1" x="204.23" y="53.19" width="3.65" height="17.83"/><path class="cls-1" d="M196.19,294.84h0a6,6,0,0,0-1.39-2.71,5.1,5.1,0,0,0,2.18-4.2,4.91,4.91,0,0,0-1.5-3.55c-1.24-1.17-3-1.72-5.54-1.72-1.31,0-5.12.12-5.12.12V300.6h3.65v-7.07h1.71c1.54.08,2.17.67,2.58,2.43a32,32,0,0,0,1.37,4.32l.14.32h4l-.33-.74a37.82,37.82,0,0,1-1.76-5M188.47,286a13.42,13.42,0,0,1,1.45-.07c3.4,0,3.4,1.62,3.4,2.15,0,1.33-1.13,2.13-3,2.13h-1.83Z" transform="translate(-26.81 -229.58)"/><path class="cls-1" d="M183,282.77H172.23a1.78,1.78,0,0,0-.54.07l-.36.12v3.14l.37.12a1.68,1.68,0,0,0,.53.07h3.36V300s0,.07,0,.12v.53h3.86l.09-.42a1.06,1.06,0,0,0,0-.23V286.29H183a1.81,1.81,0,0,0,.55-.07l.35-.13V283l-.35-.12a1.56,1.56,0,0,0-.55-.08" transform="translate(-26.81 -229.58)"/><path class="cls-1" d="M257.66,289.92h0c-3.14-.84-3.23-1.08-3.23-2.38,0-.59,0-1.56,3.76-1.56.6,0,2.74,0,3.53.12l.59.06V283l-.47-.06c-.85-.09-3.3-.17-4.39-.17-2.87,0-6.67.53-6.67,5.07,0,3.43,2.35,4.36,5.42,5.22,2.44.69,3.11,1.05,3.11,2.32s-.52,2-3.26,2c-.78,0-3.09-.05-4-.13l-.58-.05v3.23l.48.05c.79.08,3.16.12,4.15.12,4.65,0,6.91-1.73,6.91-5.3s-2.71-4.67-5.37-5.38" transform="translate(-26.81 -229.58)"/><path class="cls-1" d="M28.71,229.58s-9.13,19.2,12.62,35.67C61.87,280.8,78.74,285.2,78.74,285.2s-39.9-10.26-51.58-29.15c.43,3.79-4.54,26.22,44.06,44.56-5.94-.9-15.37-2.66-32.32-14.11,2.3,5.9,7.09,20.13,39.9,32.69,7.77,3,31.07,7.52,36.83,7.52" transform="translate(-26.81 -229.58)"/><path class="cls-1" d="M115.63,326.71c-1.1-11.19-3-41.1-12.1-48.23S56.24,254.87,51.71,252.2s-19.95-11.93-23-22.62" transform="translate(-26.81 -229.58)"/><text class="cls-2" transform="translate(91.92 97.95)"><tspan class="cls-3">B</tspan><tspan class="cls-4" x="9.65" y="0">ETTER</tspan><tspan class="cls-3" x="57.9" y="0"> </tspan><tspan class="cls-5" x="65.05" y="0">|</tspan><tspan class="cls-3" x="74.63" y="0" xml:space="preserve"> SMA</tspan><tspan class="cls-6" x="111.61" y="0">R</tspan><tspan class="cls-4" x="121.05" y="0">TE</tspan><tspan x="140.28" y="0">R</tspan></text></svg>